<svg width="784" height="160" viewBox="0 0 784 160" fill="none" xmlns="http://www.w3.org/2000/svg">
<rect x="14" y="32" width="96" height="96" rx="48" fill="#675AF0"/>
<path d="M56 70.625C55.385 70.625 54.875 70.115 54.875 69.5V65C54.875 64.385 55.385 63.875 56 63.875C56.615 63.875 57.125 64.385 57.125 65V69.5C57.125 70.115 56.615 70.625 56 70.625Z" fill="white"/>
<path d="M68 70.625C67.385 70.625 66.875 70.115 66.875 69.5V65C66.875 64.385 67.385 63.875 68 63.875C68.615 63.875 69.125 64.385 69.125 65V69.5C69.125 70.115 68.615 70.625 68 70.625Z" fill="white"/>
<path d="M56.75 83.75C56.555 83.75 56.36 83.705 56.18 83.63C55.985 83.555 55.835 83.45 55.685 83.315C55.415 83.03 55.25 82.655 55.25 82.25C55.25 82.055 55.295 81.86 55.37 81.68C55.445 81.5 55.55 81.335 55.685 81.185C55.835 81.05 55.985 80.945 56.18 80.87C56.72 80.645 57.395 80.765 57.815 81.185C58.085 81.47 58.25 81.86 58.25 82.25C58.25 82.34 58.235 82.445 58.22 82.55C58.205 82.64 58.175 82.73 58.13 82.82C58.1 82.91 58.055 83 57.995 83.09C57.95 83.165 57.875 83.24 57.815 83.315C57.53 83.585 57.14 83.75 56.75 83.75Z" fill="white"/>
<path d="M62 83.7498C61.805 83.7498 61.61 83.7048 61.43 83.6298C61.235 83.5548 61.085 83.4498 60.935 83.3148C60.665 83.0298 60.5 82.6548 60.5 82.2498C60.5 82.0548 60.545 81.8598 60.62 81.6798C60.695 81.4998 60.8 81.3348 60.935 81.1848C61.085 81.0498 61.235 80.9448 61.43 80.8698C61.97 80.6298 62.645 80.7648 63.065 81.1848C63.335 81.4698 63.5 81.8598 63.5 82.2498C63.5 82.3398 63.485 82.4448 63.47 82.5498C63.455 82.6398 63.425 82.7298 63.38 82.8198C63.35 82.9098 63.305 82.9998 63.245 83.0898C63.2 83.1648 63.125 83.2398 63.065 83.3148C62.78 83.5848 62.39 83.7498 62 83.7498Z" fill="white"/>
<path d="M67.25 83.7498C67.055 83.7498 66.86 83.7048 66.68 83.6298C66.485 83.5548 66.335 83.4498 66.185 83.3148C66.125 83.2398 66.065 83.1648 66.005 83.0898C65.945 82.9998 65.9 82.9098 65.87 82.8198C65.825 82.7298 65.795 82.6398 65.78 82.5498C65.765 82.4448 65.75 82.3398 65.75 82.2498C65.75 81.8598 65.915 81.4698 66.185 81.1848C66.335 81.0498 66.485 80.9448 66.68 80.8698C67.235 80.6298 67.895 80.7648 68.315 81.1848C68.585 81.4698 68.75 81.8598 68.75 82.2498C68.75 82.3398 68.735 82.4448 68.72 82.5498C68.705 82.6398 68.675 82.7298 68.63 82.8198C68.6 82.9098 68.555 82.9998 68.495 83.0898C68.45 83.1648 68.375 83.2398 68.315 83.3148C68.03 83.5848 67.64 83.7498 67.25 83.7498Z" fill="white"/>
<path d="M56.75 88.9998C56.555 88.9998 56.36 88.9548 56.18 88.8798C56 88.8048 55.835 88.6998 55.685 88.5648C55.415 88.2798 55.25 87.8898 55.25 87.4998C55.25 87.3048 55.295 87.1098 55.37 86.9298C55.445 86.7348 55.55 86.5698 55.685 86.4348C56.24 85.8798 57.26 85.8798 57.815 86.4348C58.085 86.7198 58.25 87.1098 58.25 87.4998C58.25 87.8898 58.085 88.2798 57.815 88.5648C57.53 88.8348 57.14 88.9998 56.75 88.9998Z" fill="white"/>
<path d="M62 88.9998C61.61 88.9998 61.22 88.8348 60.935 88.5648C60.665 88.2798 60.5 87.8898 60.5 87.4998C60.5 87.3048 60.545 87.1098 60.62 86.9298C60.695 86.7348 60.8 86.5698 60.935 86.4348C61.49 85.8798 62.51 85.8798 63.065 86.4348C63.2 86.5698 63.305 86.7348 63.38 86.9298C63.455 87.1098 63.5 87.3048 63.5 87.4998C63.5 87.8898 63.335 88.2798 63.065 88.5648C62.78 88.8348 62.39 88.9998 62 88.9998Z" fill="white"/>
<path d="M67.25 88.9999C66.86 88.9999 66.47 88.8349 66.185 88.5649C66.05 88.4299 65.945 88.2649 65.87 88.0699C65.795 87.8899 65.75 87.6949 65.75 87.4999C65.75 87.3049 65.795 87.1099 65.87 86.9299C65.945 86.7349 66.05 86.5699 66.185 86.4349C66.53 86.0899 67.055 85.9249 67.535 86.0299C67.64 86.0449 67.73 86.0748 67.82 86.1198C67.91 86.1498 68 86.1949 68.09 86.2549C68.165 86.2999 68.24 86.3749 68.315 86.4349C68.585 86.7199 68.75 87.1099 68.75 87.4999C68.75 87.8899 68.585 88.2799 68.315 88.5649C68.03 88.8349 67.64 88.9999 67.25 88.9999Z" fill="white"/>
<path d="M74.75 76.7598H49.25C48.635 76.7598 48.125 76.2498 48.125 75.6348C48.125 75.0198 48.635 74.5098 49.25 74.5098H74.75C75.365 74.5098 75.875 75.0198 75.875 75.6348C75.875 76.2498 75.365 76.7598 74.75 76.7598Z" fill="white"/>
<path d="M68 96.125H56C50.525 96.125 47.375 92.975 47.375 87.5V74.75C47.375 69.275 50.525 66.125 56 66.125H68C73.475 66.125 76.625 69.275 76.625 74.75V87.5C76.625 92.975 73.475 96.125 68 96.125ZM56 68.375C51.71 68.375 49.625 70.46 49.625 74.75V87.5C49.625 91.79 51.71 93.875 56 93.875H68C72.29 93.875 74.375 91.79 74.375 87.5V74.75C74.375 70.46 72.29 68.375 68 68.375H56Z" fill="white"/>
<rect x="351" y="32" width="96" height="96" rx="48" fill="#675AF0"/>
<path d="M403.86 96.125H394.14C391.305 96.125 389.235 94.94 388.44 92.9C387.615 90.77 388.38 88.13 390.36 86.345L397.32 80L390.36 73.655C388.38 71.87 387.615 69.23 388.44 67.1C389.235 65.045 391.305 63.875 394.14 63.875H403.86C406.695 63.875 408.765 65.06 409.56 67.1C410.385 69.23 409.62 71.87 407.64 73.655L400.68 80L407.655 86.345C409.62 88.13 410.4 90.77 409.575 92.9C408.765 94.94 406.695 96.125 403.86 96.125ZM399 81.515L391.875 87.995C390.615 89.15 390.06 90.83 390.54 92.075C390.99 93.23 392.265 93.875 394.14 93.875H403.86C405.735 93.875 407.01 93.245 407.46 92.075C407.94 90.83 407.4 89.15 406.125 87.995L399 81.515ZM394.14 66.125C392.265 66.125 390.99 66.755 390.54 67.925C390.06 69.17 390.6 70.85 391.875 72.005L399 78.485L406.125 72.005C407.385 70.85 407.94 69.17 407.46 67.925C407.01 66.77 405.735 66.125 403.86 66.125H394.14Z" fill="white"/>
<rect x="688" y="32" width="96" height="96" rx="48" fill="#675AF0"/>
<path d="M710.058 85.984V84.304L714.986 79.912C715.37 79.5707 715.636 79.248 715.786 78.944C715.935 78.64 716.01 78.3467 716.01 78.064C716.01 77.68 715.927 77.3387 715.762 77.04C715.596 76.736 715.367 76.496 715.074 76.32C714.786 76.144 714.452 76.056 714.074 76.056C713.674 76.056 713.319 76.1493 713.01 76.336C712.706 76.5173 712.468 76.76 712.298 77.064C712.127 77.368 712.047 77.696 712.058 78.048H710.074C710.074 77.28 710.244 76.6107 710.586 76.04C710.932 75.4693 711.407 75.0267 712.01 74.712C712.618 74.3973 713.319 74.24 714.114 74.24C714.85 74.24 715.511 74.4053 716.098 74.736C716.684 75.0613 717.146 75.5147 717.482 76.096C717.818 76.672 717.986 77.336 717.986 78.088C717.986 78.6373 717.911 79.0987 717.762 79.472C717.612 79.8453 717.388 80.1893 717.09 80.504C716.796 80.8187 716.431 81.168 715.994 81.552L712.498 84.648L712.322 84.168H717.986V85.984H710.058ZM723.325 86.24C722.738 86.24 722.192 86.12 721.685 85.88C721.178 85.6347 720.741 85.2987 720.373 84.872C720.01 84.4453 719.749 83.9493 719.589 83.384L721.445 82.888C721.52 83.1973 721.656 83.464 721.853 83.688C722.056 83.912 722.29 84.0853 722.557 84.208C722.829 84.3307 723.109 84.392 723.397 84.392C723.77 84.392 724.112 84.3013 724.421 84.12C724.73 83.9387 724.976 83.696 725.157 83.392C725.338 83.0827 725.429 82.7413 725.429 82.368C725.429 81.9947 725.336 81.656 725.149 81.352C724.968 81.0427 724.722 80.8 724.413 80.624C724.104 80.4427 723.765 80.352 723.397 80.352C722.954 80.352 722.586 80.432 722.293 80.592C722.005 80.752 721.784 80.9227 721.629 81.104L719.981 80.576L720.333 74.48H726.589V76.288H721.365L722.085 75.608L721.829 79.848L721.477 79.416C721.776 79.144 722.122 78.9413 722.517 78.808C722.912 78.6747 723.293 78.608 723.661 78.608C724.381 78.608 725.018 78.7733 725.573 79.104C726.133 79.4293 726.57 79.8747 726.885 80.44C727.205 81.0053 727.365 81.648 727.365 82.368C727.365 83.088 727.178 83.7413 726.805 84.328C726.432 84.9093 725.938 85.3733 725.325 85.72C724.717 86.0667 724.05 86.24 723.325 86.24ZM735.823 86.24C734.757 86.24 733.89 86 733.223 85.52C732.557 85.04 732.151 84.3653 732.007 83.496L733.975 83.192C734.077 83.6187 734.301 83.9547 734.647 84.2C734.994 84.4453 735.431 84.568 735.959 84.568C736.423 84.568 736.781 84.4773 737.031 84.296C737.287 84.1093 737.415 83.856 737.415 83.536C737.415 83.3387 737.367 83.1813 737.271 83.064C737.181 82.9413 736.978 82.824 736.663 82.712C736.349 82.6 735.866 82.4587 735.215 82.288C734.49 82.096 733.914 81.8907 733.487 81.672C733.061 81.448 732.754 81.184 732.567 80.88C732.381 80.576 732.287 80.208 732.287 79.776C732.287 79.2373 732.429 78.768 732.711 78.368C732.994 77.968 733.389 77.6613 733.895 77.448C734.402 77.2293 734.999 77.12 735.687 77.12C736.359 77.12 736.954 77.224 737.471 77.432C737.994 77.64 738.415 77.936 738.735 78.32C739.055 78.704 739.253 79.1547 739.327 79.672L737.359 80.024C737.311 79.656 737.143 79.3653 736.855 79.152C736.573 78.9387 736.194 78.8187 735.719 78.792C735.266 78.7653 734.901 78.8347 734.623 79C734.346 79.16 734.207 79.3867 734.207 79.68C734.207 79.8453 734.263 79.9867 734.375 80.104C734.487 80.2213 734.711 80.3387 735.047 80.456C735.389 80.5733 735.895 80.7173 736.567 80.888C737.255 81.064 737.805 81.2667 738.215 81.496C738.631 81.72 738.93 81.9893 739.111 82.304C739.298 82.6187 739.391 83 739.391 83.448C739.391 84.3173 739.074 85 738.439 85.496C737.81 85.992 736.938 86.24 735.823 86.24ZM744.383 86.248C743.743 86.248 743.215 86.1413 742.799 85.928C742.383 85.7147 742.053 85.4427 741.807 85.112C741.562 84.7813 741.381 84.4293 741.263 84.056C741.146 83.6827 741.069 83.3307 741.031 83C740.999 82.664 740.983 82.392 740.983 82.184V77.36H742.935V81.52C742.935 81.7867 742.954 82.088 742.991 82.424C743.029 82.7547 743.114 83.0747 743.247 83.384C743.386 83.688 743.589 83.9387 743.855 84.136C744.127 84.3333 744.493 84.432 744.951 84.432C745.197 84.432 745.439 84.392 745.679 84.312C745.919 84.232 746.135 84.096 746.327 83.904C746.525 83.7067 746.682 83.4373 746.799 83.096C746.917 82.7547 746.975 82.3227 746.975 81.8L748.119 82.288C748.119 83.024 747.975 83.6907 747.687 84.288C747.405 84.8853 746.986 85.3627 746.431 85.72C745.877 86.072 745.194 86.248 744.383 86.248ZM747.207 86V83.32H746.975V77.36H748.911V86H747.207ZM753.575 86.24C752.951 86.24 752.423 86.1227 751.991 85.888C751.559 85.648 751.231 85.3307 751.007 84.936C750.788 84.5413 750.679 84.1067 750.679 83.632C750.679 83.216 750.748 82.8427 750.887 82.512C751.026 82.176 751.239 81.888 751.527 81.648C751.815 81.4027 752.188 81.2027 752.647 81.048C752.994 80.936 753.399 80.8347 753.863 80.744C754.332 80.6533 754.839 80.5707 755.383 80.496C755.932 80.416 756.506 80.3307 757.103 80.24L756.415 80.632C756.42 80.0347 756.287 79.5947 756.015 79.312C755.743 79.0293 755.284 78.888 754.639 78.888C754.25 78.888 753.874 78.9787 753.511 79.16C753.148 79.3413 752.895 79.6533 752.751 80.096L750.991 79.544C751.204 78.8133 751.61 78.2267 752.207 77.784C752.81 77.3413 753.62 77.12 754.639 77.12C755.407 77.12 756.082 77.2453 756.663 77.496C757.25 77.7467 757.684 78.1573 757.967 78.728C758.122 79.032 758.215 79.344 758.247 79.664C758.279 79.9787 758.295 80.3227 758.295 80.696V86H756.607V84.128L756.887 84.432C756.498 85.056 756.042 85.5147 755.519 85.808C755.002 86.096 754.354 86.24 753.575 86.24ZM753.959 84.704C754.396 84.704 754.77 84.6267 755.079 84.472C755.388 84.3173 755.634 84.128 755.815 83.904C756.002 83.68 756.127 83.4693 756.191 83.272C756.292 83.0267 756.348 82.7467 756.359 82.432C756.375 82.112 756.383 81.8533 756.383 81.656L756.975 81.832C756.394 81.9227 755.895 82.0027 755.479 82.072C755.063 82.1413 754.706 82.208 754.407 82.272C754.108 82.3307 753.844 82.3973 753.615 82.472C753.391 82.552 753.202 82.6453 753.047 82.752C752.892 82.8587 752.772 82.9813 752.687 83.12C752.607 83.2587 752.567 83.4213 752.567 83.608C752.567 83.8213 752.62 84.0107 752.727 84.176C752.834 84.336 752.988 84.464 753.191 84.56C753.399 84.656 753.655 84.704 753.959 84.704ZM760.538 86V74.24H762.466V86H760.538Z" fill="white"/>
<path d="M32.12 17V5.48H36.688C37.4667 5.48 38.104 5.63733 38.6 5.952C39.1013 6.26133 39.472 6.65867 39.712 7.144C39.9573 7.62933 40.08 8.13067 40.08 8.648C40.08 9.28267 39.928 9.82133 39.624 10.264C39.3253 10.7067 38.9173 11.0053 38.4 11.16V10.76C39.1253 10.9253 39.6747 11.2693 40.048 11.792C40.4267 12.3147 40.616 12.9093 40.616 13.576C40.616 14.2587 40.4853 14.856 40.224 15.368C39.9627 15.88 39.5733 16.28 39.056 16.568C38.544 16.856 37.9093 17 37.152 17H32.12ZM34.072 15.184H36.912C37.248 15.184 37.5493 15.1173 37.816 14.984C38.0827 14.8453 38.2907 14.6533 38.44 14.408C38.5947 14.1573 38.672 13.8613 38.672 13.52C38.672 13.2107 38.6053 12.9333 38.472 12.688C38.3387 12.4427 38.144 12.248 37.888 12.104C37.632 11.9547 37.3253 11.88 36.968 11.88H34.072V15.184ZM34.072 10.08H36.664C36.9413 10.08 37.1893 10.0267 37.408 9.92C37.6267 9.81333 37.8 9.656 37.928 9.448C38.056 9.24 38.12 8.984 38.12 8.68C38.12 8.28 37.992 7.94667 37.736 7.68C37.48 7.41333 37.1227 7.28 36.664 7.28H34.072V10.08ZM44.6298 17.24C44.0058 17.24 43.4778 17.1227 43.0458 16.888C42.6138 16.648 42.2858 16.3307 42.0618 15.936C41.8431 15.5413 41.7338 15.1067 41.7338 14.632C41.7338 14.216 41.8031 13.8427 41.9418 13.512C42.0804 13.176 42.2938 12.888 42.5818 12.648C42.8698 12.4027 43.2431 12.2027 43.7018 12.048C44.0484 11.936 44.4538 11.8347 44.9178 11.744C45.3871 11.6533 45.8938 11.5707 46.4378 11.496C46.9871 11.416 47.5604 11.3307 48.1578 11.24L47.4698 11.632C47.4751 11.0347 47.3418 10.5947 47.0698 10.312C46.7978 10.0293 46.3391 9.888 45.6938 9.888C45.3044 9.888 44.9284 9.97867 44.5658 10.16C44.2031 10.3413 43.9498 10.6533 43.8058 11.096L42.0458 10.544C42.2591 9.81333 42.6644 9.22667 43.2618 8.784C43.8644 8.34133 44.6751 8.12 45.6938 8.12C46.4618 8.12 47.1364 8.24533 47.7178 8.496C48.3044 8.74667 48.7391 9.15733 49.0218 9.728C49.1764 10.032 49.2698 10.344 49.3018 10.664C49.3338 10.9787 49.3498 11.3227 49.3498 11.696V17H47.6618V15.128L47.9418 15.432C47.5524 16.056 47.0964 16.5147 46.5738 16.808C46.0564 17.096 45.4084 17.24 44.6298 17.24ZM45.0138 15.704C45.4511 15.704 45.8244 15.6267 46.1338 15.472C46.4431 15.3173 46.6884 15.128 46.8698 14.904C47.0564 14.68 47.1818 14.4693 47.2458 14.272C47.3471 14.0267 47.4031 13.7467 47.4138 13.432C47.4298 13.112 47.4378 12.8533 47.4378 12.656L48.0298 12.832C47.4484 12.9227 46.9498 13.0027 46.5338 13.072C46.1178 13.1413 45.7604 13.208 45.4618 13.272C45.1631 13.3307 44.8991 13.3973 44.6698 13.472C44.4458 13.552 44.2564 13.6453 44.1018 13.752C43.9471 13.8587 43.8271 13.9813 43.7418 14.12C43.6618 14.2587 43.6218 14.4213 43.6218 14.608C43.6218 14.8213 43.6751 15.0107 43.7818 15.176C43.8884 15.336 44.0431 15.464 44.2458 15.56C44.4538 15.656 44.7098 15.704 45.0138 15.704ZM54.5285 20.864C54.3098 20.864 54.1098 20.8347 53.9285 20.776C53.7472 20.7227 53.5792 20.656 53.4245 20.576L53.8485 19.432C54.0618 19.5067 54.2325 19.544 54.3605 19.544C54.5205 19.544 54.6432 19.496 54.7285 19.4C54.8138 19.3093 54.8565 19.2133 54.8565 19.112C54.8565 18.904 54.7525 18.752 54.5445 18.656C54.3365 18.56 54.0938 18.472 53.8165 18.392L54.3845 16.752L55.5445 16.744L55.2325 17.672C55.5365 17.8213 55.7738 18.0187 55.9445 18.264C56.1152 18.5093 56.2005 18.8053 56.2005 19.152C56.2005 19.6587 56.0325 20.0693 55.6965 20.384C55.3658 20.704 54.9765 20.864 54.5285 20.864ZM54.7685 17.24C53.7018 17.24 52.8352 17 52.1685 16.52C51.5018 16.04 51.0965 15.3653 50.9525 14.496L52.9205 14.192C53.0218 14.6187 53.2458 14.9547 53.5925 15.2C53.9392 15.4453 54.3765 15.568 54.9045 15.568C55.3685 15.568 55.7258 15.4773 55.9765 15.296C56.2325 15.1093 56.3605 14.856 56.3605 14.536C56.3605 14.3387 56.3125 14.1813 56.2165 14.064C56.1258 13.9413 55.9232 13.824 55.6085 13.712C55.2938 13.6 54.8112 13.4587 54.1605 13.288C53.4352 13.096 52.8592 12.8907 52.4325 12.672C52.0058 12.448 51.6992 12.184 51.5125 11.88C51.3258 11.576 51.2325 11.208 51.2325 10.776C51.2325 10.2373 51.3738 9.768 51.6565 9.368C51.9392 8.968 52.3338 8.66133 52.8405 8.448C53.3472 8.22933 53.9445 8.12 54.6325 8.12C55.3045 8.12 55.8992 8.224 56.4165 8.432C56.9392 8.64 57.3605 8.936 57.6805 9.32C58.0005 9.704 58.1978 10.1547 58.2725 10.672L56.3045 11.024C56.2565 10.656 56.0885 10.3653 55.8005 10.152C55.5178 9.93867 55.1392 9.81867 54.6645 9.792C54.2112 9.76533 53.8458 9.83467 53.5685 10C53.2912 10.16 53.1525 10.3867 53.1525 10.68C53.1525 10.8453 53.2085 10.9867 53.3205 11.104C53.4325 11.2213 53.6565 11.3387 53.9925 11.456C54.3338 11.5733 54.8405 11.7173 55.5125 11.888C56.2005 12.064 56.7498 12.2667 57.1605 12.496C57.5765 12.72 57.8752 12.9893 58.0565 13.304C58.2432 13.6187 58.3365 14 58.3365 14.448C58.3365 15.3173 58.0192 16 57.3845 16.496C56.7552 16.992 55.8832 17.24 54.7685 17.24ZM60.2488 17V5.24H62.1768V17H60.2488ZM66.9891 17.24C66.3651 17.24 65.8371 17.1227 65.4051 16.888C64.9731 16.648 64.6451 16.3307 64.4211 15.936C64.2025 15.5413 64.0931 15.1067 64.0931 14.632C64.0931 14.216 64.1625 13.8427 64.3011 13.512C64.4398 13.176 64.6531 12.888 64.9411 12.648C65.2291 12.4027 65.6025 12.2027 66.0611 12.048C66.4078 11.936 66.8131 11.8347 67.2771 11.744C67.7465 11.6533 68.2531 11.5707 68.7971 11.496C69.3465 11.416 69.9198 11.3307 70.5171 11.24L69.8291 11.632C69.8345 11.0347 69.7011 10.5947 69.4291 10.312C69.1571 10.0293 68.6985 9.888 68.0531 9.888C67.6638 9.888 67.2878 9.97867 66.9251 10.16C66.5625 10.3413 66.3091 10.6533 66.1651 11.096L64.4051 10.544C64.6185 9.81333 65.0238 9.22667 65.6211 8.784C66.2238 8.34133 67.0345 8.12 68.0531 8.12C68.8211 8.12 69.4958 8.24533 70.0771 8.496C70.6638 8.74667 71.0985 9.15733 71.3811 9.728C71.5358 10.032 71.6291 10.344 71.6611 10.664C71.6931 10.9787 71.7091 11.3227 71.7091 11.696V17H70.0211V15.128L70.3011 15.432C69.9118 16.056 69.4558 16.5147 68.9331 16.808C68.4158 17.096 67.7678 17.24 66.9891 17.24ZM67.3731 15.704C67.8105 15.704 68.1838 15.6267 68.4931 15.472C68.8025 15.3173 69.0478 15.128 69.2291 14.904C69.4158 14.68 69.5411 14.4693 69.6051 14.272C69.7065 14.0267 69.7625 13.7467 69.7731 13.432C69.7891 13.112 69.7971 12.8533 69.7971 12.656L70.3891 12.832C69.8078 12.9227 69.3091 13.0027 68.8931 13.072C68.4771 13.1413 68.1198 13.208 67.8211 13.272C67.5225 13.3307 67.2585 13.3973 67.0291 13.472C66.8051 13.552 66.6158 13.6453 66.4611 13.752C66.3065 13.8587 66.1865 13.9813 66.1011 14.12C66.0211 14.2587 65.9811 14.4213 65.9811 14.608C65.9811 14.8213 66.0345 15.0107 66.1411 15.176C66.2478 15.336 66.4025 15.464 66.6051 15.56C66.8131 15.656 67.0691 15.704 67.3731 15.704ZM74.4435 20.84L76.1075 16.272L76.1395 17.616L72.3715 8.36H74.3795L77.0515 15.208H76.5395L79.1395 8.36H81.0675L76.2515 20.84H74.4435ZM82.4206 17V8.36H84.3486V17H82.4206ZM86.745 17V8.36H88.449V10.464L88.241 10.192C88.3477 9.904 88.489 9.64267 88.665 9.408C88.8463 9.168 89.0623 8.97067 89.313 8.816C89.5263 8.672 89.761 8.56 90.017 8.48C90.2783 8.39467 90.545 8.344 90.817 8.328C91.089 8.30667 91.353 8.31733 91.609 8.36V10.16C91.353 10.0853 91.057 10.0613 90.721 10.088C90.3903 10.1147 90.0917 10.208 89.825 10.368C89.5583 10.512 89.3397 10.696 89.169 10.92C89.0037 11.144 88.881 11.4 88.801 11.688C88.721 11.9707 88.681 12.2773 88.681 12.608V17H86.745Z" fill="white"/>
<path d="M370.12 17V5.48H371.856L375.84 13.64L379.824 5.48H381.56V17H379.76V9.616L376.224 17H375.456L371.928 9.616V17H370.12ZM388.384 7.024V5.264H390.144V7.024H388.384ZM385.08 7.024V5.264H386.84V7.024H385.08ZM387.048 17.248C386.408 17.248 385.88 17.1413 385.464 16.928C385.048 16.7147 384.717 16.4427 384.472 16.112C384.226 15.7813 384.045 15.4293 383.928 15.056C383.81 14.6827 383.733 14.3307 383.696 14C383.664 13.664 383.648 13.392 383.648 13.184V8.36H385.6V12.52C385.6 12.7867 385.618 13.088 385.656 13.424C385.693 13.7547 385.778 14.0747 385.912 14.384C386.05 14.688 386.253 14.9387 386.52 15.136C386.792 15.3333 387.157 15.432 387.616 15.432C387.861 15.432 388.104 15.392 388.344 15.312C388.584 15.232 388.8 15.096 388.992 14.904C389.189 14.7067 389.346 14.4373 389.464 14.096C389.581 13.7547 389.64 13.3227 389.64 12.8L390.784 13.288C390.784 14.024 390.64 14.6907 390.352 15.288C390.069 15.8853 389.65 16.3627 389.096 16.72C388.541 17.072 387.858 17.248 387.048 17.248ZM389.872 17V14.32H389.64V8.36H391.576V17H389.872ZM397.287 17.24C396.492 17.24 395.799 17.04 395.207 16.64C394.615 16.24 394.156 15.696 393.831 15.008C393.506 14.32 393.343 13.544 393.343 12.68C393.343 11.8053 393.506 11.0267 393.831 10.344C394.162 9.656 394.628 9.11467 395.231 8.72C395.834 8.32 396.543 8.12 397.359 8.12C398.18 8.12 398.868 8.32 399.423 8.72C399.983 9.11467 400.407 9.656 400.695 10.344C400.983 11.032 401.127 11.8107 401.127 12.68C401.127 13.5387 400.983 14.3147 400.695 15.008C400.407 15.696 399.978 16.24 399.407 16.64C398.836 17.04 398.13 17.24 397.287 17.24ZM397.583 15.512C398.1 15.512 398.516 15.3947 398.831 15.16C399.151 14.92 399.383 14.5867 399.527 14.16C399.676 13.7333 399.751 13.24 399.751 12.68C399.751 12.1147 399.676 11.6213 399.527 11.2C399.383 10.7733 399.156 10.4427 398.847 10.208C398.538 9.968 398.138 9.848 397.647 9.848C397.13 9.848 396.703 9.976 396.367 10.232C396.031 10.4827 395.783 10.824 395.623 11.256C395.463 11.6827 395.383 12.1573 395.383 12.68C395.383 13.208 395.46 13.688 395.615 14.12C395.775 14.5467 396.018 14.8853 396.343 15.136C396.668 15.3867 397.082 15.512 397.583 15.512ZM399.751 17V10.936H399.511V5.48H401.455V17H399.751ZM407.162 17.24C406.367 17.24 405.674 17.04 405.082 16.64C404.49 16.24 404.031 15.696 403.706 15.008C403.381 14.32 403.218 13.544 403.218 12.68C403.218 11.8053 403.381 11.0267 403.706 10.344C404.037 9.656 404.503 9.11467 405.106 8.72C405.709 8.32 406.418 8.12 407.234 8.12C408.055 8.12 408.743 8.32 409.298 8.72C409.858 9.11467 410.282 9.656 410.57 10.344C410.858 11.032 411.002 11.8107 411.002 12.68C411.002 13.5387 410.858 14.3147 410.57 15.008C410.282 15.696 409.853 16.24 409.282 16.64C408.711 17.04 408.005 17.24 407.162 17.24ZM407.458 15.512C407.975 15.512 408.391 15.3947 408.706 15.16C409.026 14.92 409.258 14.5867 409.402 14.16C409.551 13.7333 409.626 13.24 409.626 12.68C409.626 12.1147 409.551 11.6213 409.402 11.2C409.258 10.7733 409.031 10.4427 408.722 10.208C408.413 9.968 408.013 9.848 407.522 9.848C407.005 9.848 406.578 9.976 406.242 10.232C405.906 10.4827 405.658 10.824 405.498 11.256C405.338 11.6827 405.258 12.1573 405.258 12.68C405.258 13.208 405.335 13.688 405.49 14.12C405.65 14.5467 405.893 14.8853 406.218 15.136C406.543 15.3867 406.957 15.512 407.458 15.512ZM409.626 17V10.936H409.386V5.48H411.33V17H409.626ZM417.045 8.12C417.914 8.12 418.68 8.30933 419.341 8.688C420.002 9.06667 420.517 9.592 420.885 10.264C421.258 10.936 421.445 11.7093 421.445 12.584C421.445 13.528 421.264 14.3493 420.901 15.048C420.538 15.7413 420.034 16.28 419.389 16.664C418.744 17.048 417.997 17.24 417.149 17.24C416.253 17.24 415.493 17.032 414.869 16.616C414.245 16.1947 413.781 15.6027 413.477 14.84C413.173 14.0773 413.056 13.1787 413.125 12.144H415.037V12.848C415.042 13.7867 415.208 14.472 415.533 14.904C415.864 15.336 416.376 15.552 417.069 15.552C417.864 15.552 418.45 15.3093 418.829 14.824C419.213 14.3333 419.405 13.6187 419.405 12.68C419.405 11.8 419.213 11.1227 418.829 10.648C418.45 10.168 417.89 9.928 417.149 9.928C416.68 9.928 416.272 10.0347 415.925 10.248C415.578 10.456 415.312 10.76 415.125 11.16L413.221 10.584C413.557 9.8 414.069 9.19467 414.757 8.768C415.445 8.336 416.208 8.12 417.045 8.12ZM420.013 12.144V13.6H414.069V12.144H420.013ZM428.262 17C427.691 17.1067 427.131 17.152 426.582 17.136C426.038 17.1253 425.55 17.0267 425.118 16.84C424.686 16.648 424.358 16.3467 424.134 15.936C423.937 15.5627 423.833 15.1813 423.822 14.792C423.811 14.4027 423.806 13.9627 423.806 13.472V5.96H425.726V13.36C425.726 13.7067 425.729 14.0107 425.734 14.272C425.745 14.5333 425.801 14.7467 425.902 14.912C426.094 15.232 426.401 15.4107 426.822 15.448C427.243 15.4853 427.723 15.464 428.262 15.384V17ZM422.238 9.872V8.36H428.262V9.872H422.238Z" fill="white"/>
<path d="M715.888 17V7.288H712.16V5.48H721.544V7.288H717.816V17H715.888ZM725.014 8.12C725.883 8.12 726.649 8.30933 727.31 8.688C727.971 9.06667 728.486 9.592 728.854 10.264C729.227 10.936 729.414 11.7093 729.414 12.584C729.414 13.528 729.233 14.3493 728.87 15.048C728.507 15.7413 728.003 16.28 727.358 16.664C726.713 17.048 725.966 17.24 725.118 17.24C724.222 17.24 723.462 17.032 722.838 16.616C722.214 16.1947 721.75 15.6027 721.446 14.84C721.142 14.0773 721.025 13.1787 721.094 12.144H723.006V12.848C723.011 13.7867 723.177 14.472 723.502 14.904C723.833 15.336 724.345 15.552 725.038 15.552C725.833 15.552 726.419 15.3093 726.798 14.824C727.182 14.3333 727.374 13.6187 727.374 12.68C727.374 11.8 727.182 11.1227 726.798 10.648C726.419 10.168 725.859 9.928 725.118 9.928C724.649 9.928 724.241 10.0347 723.894 10.248C723.547 10.456 723.281 10.76 723.094 11.16L721.19 10.584C721.526 9.8 722.038 9.19467 722.726 8.768C723.414 8.336 724.177 8.12 725.014 8.12ZM727.982 12.144V13.6H722.038V12.144H727.982ZM731.167 17V8.36H732.871V10.464L732.663 10.192C732.77 9.904 732.911 9.64267 733.087 9.408C733.268 9.168 733.484 8.97067 733.735 8.816C733.948 8.672 734.183 8.56 734.439 8.48C734.7 8.39467 734.967 8.344 735.239 8.328C735.511 8.30667 735.775 8.31733 736.031 8.36V10.16C735.775 10.0853 735.479 10.0613 735.143 10.088C734.812 10.1147 734.514 10.208 734.247 10.368C733.98 10.512 733.762 10.696 733.591 10.92C733.426 11.144 733.303 11.4 733.223 11.688C733.143 11.9707 733.103 12.2773 733.103 12.608V17H731.167ZM737.542 17L737.558 5.48H739.51V12.52L742.67 8.36H745.078L741.726 12.68L745.366 17H742.814L739.51 12.84V17H737.542ZM746.327 7.048V5.28H748.255V7.048H746.327ZM746.327 17V8.36H748.255V17H746.327ZM754.803 17.24C753.961 17.24 753.254 17.04 752.683 16.64C752.113 16.24 751.683 15.696 751.395 15.008C751.107 14.3147 750.963 13.5387 750.963 12.68C750.963 11.8107 751.107 11.032 751.395 10.344C751.683 9.656 752.105 9.11467 752.659 8.72C753.219 8.32 753.91 8.12 754.731 8.12C755.547 8.12 756.254 8.32 756.851 8.72C757.454 9.11467 757.921 9.656 758.251 10.344C758.582 11.0267 758.747 11.8053 758.747 12.68C758.747 13.544 758.585 14.32 758.259 15.008C757.934 15.696 757.475 16.24 756.883 16.64C756.291 17.04 755.598 17.24 754.803 17.24ZM750.635 17V5.48H752.579V10.936H752.339V17H750.635ZM754.507 15.512C755.009 15.512 755.422 15.3867 755.747 15.136C756.073 14.8853 756.313 14.5467 756.467 14.12C756.627 13.688 756.707 13.208 756.707 12.68C756.707 12.1573 756.627 11.6827 756.467 11.256C756.307 10.824 756.059 10.4827 755.723 10.232C755.387 9.976 754.961 9.848 754.443 9.848C753.953 9.848 753.553 9.968 753.243 10.208C752.934 10.4427 752.705 10.7733 752.555 11.2C752.411 11.6213 752.339 12.1147 752.339 12.68C752.339 13.24 752.411 13.7333 752.555 14.16C752.705 14.5867 752.937 14.92 753.251 15.16C753.571 15.3947 753.99 15.512 754.507 15.512Z" fill="white"/>
<path d="M1.256 141.776V139.8H3.232V141.776H1.256ZM1.28 155V143.48H3.208V155H1.28ZM8.94038 155.24C7.87371 155.24 7.00704 155 6.34038 154.52C5.67371 154.04 5.26838 153.365 5.12438 152.496L7.09238 152.192C7.19371 152.619 7.41771 152.955 7.76438 153.2C8.11104 153.445 8.54838 153.568 9.07638 153.568C9.54038 153.568 9.89771 153.477 10.1484 153.296C10.4044 153.109 10.5324 152.856 10.5324 152.536C10.5324 152.339 10.4844 152.181 10.3884 152.064C10.2977 151.941 10.095 151.824 9.78038 151.712C9.46571 151.6 8.98304 151.459 8.33238 151.288C7.60704 151.096 7.03104 150.891 6.60438 150.672C6.17771 150.448 5.87104 150.184 5.68438 149.88C5.49771 149.576 5.40438 149.208 5.40438 148.776C5.40438 148.237 5.54571 147.768 5.82838 147.368C6.11104 146.968 6.50571 146.661 7.01238 146.448C7.51904 146.229 8.11638 146.12 8.80438 146.12C9.47638 146.12 10.071 146.224 10.5884 146.432C11.111 146.64 11.5324 146.936 11.8524 147.32C12.1724 147.704 12.3697 148.155 12.4444 148.672L10.4764 149.024C10.4284 148.656 10.2604 148.365 9.97238 148.152C9.68971 147.939 9.31104 147.819 8.83638 147.792C8.38304 147.765 8.01771 147.835 7.74038 148C7.46304 148.16 7.32438 148.387 7.32438 148.68C7.32438 148.845 7.38038 148.987 7.49238 149.104C7.60438 149.221 7.82838 149.339 8.16438 149.456C8.50571 149.573 9.01238 149.717 9.68438 149.888C10.3724 150.064 10.9217 150.267 11.3324 150.496C11.7484 150.72 12.047 150.989 12.2284 151.304C12.415 151.619 12.5084 152 12.5084 152.448C12.5084 153.317 12.191 154 11.5564 154.496C10.927 154.992 10.055 155.24 8.94038 155.24ZM19.3246 155C18.754 155.107 18.194 155.152 17.6446 155.136C17.1006 155.125 16.6126 155.027 16.1806 154.84C15.7486 154.648 15.4206 154.347 15.1966 153.936C14.9993 153.563 14.8953 153.181 14.8846 152.792C14.874 152.403 14.8686 151.963 14.8686 151.472V143.96H16.7886V151.36C16.7886 151.707 16.7913 152.011 16.7966 152.272C16.8073 152.533 16.8633 152.747 16.9646 152.912C17.1566 153.232 17.4633 153.411 17.8846 153.448C18.306 153.485 18.786 153.464 19.3246 153.384V155ZM13.3006 147.872V146.36H19.3246V147.872H13.3006ZM24.217 146.12C25.0863 146.12 25.8517 146.309 26.513 146.688C27.1743 147.067 27.689 147.592 28.057 148.264C28.4303 148.936 28.617 149.709 28.617 150.584C28.617 151.528 28.4357 152.349 28.073 153.048C27.7103 153.741 27.2063 154.28 26.561 154.664C25.9157 155.048 25.169 155.24 24.321 155.24C23.425 155.24 22.665 155.032 22.041 154.616C21.417 154.195 20.953 153.603 20.649 152.84C20.345 152.077 20.2277 151.179 20.297 150.144H22.209V150.848C22.2143 151.787 22.3797 152.472 22.705 152.904C23.0357 153.336 23.5477 153.552 24.241 153.552C25.0357 153.552 25.6223 153.309 26.001 152.824C26.385 152.333 26.577 151.619 26.577 150.68C26.577 149.8 26.385 149.123 26.001 148.648C25.6223 148.168 25.0623 147.928 24.321 147.928C23.8517 147.928 23.4437 148.035 23.097 148.248C22.7503 148.456 22.4837 148.76 22.297 149.16L20.393 148.584C20.729 147.8 21.241 147.195 21.929 146.768C22.617 146.336 23.3797 146.12 24.217 146.12ZM27.185 150.144V151.6H21.241V150.144H27.185ZM36.346 155V150.84C36.346 150.568 36.3273 150.267 36.29 149.936C36.2527 149.605 36.1647 149.288 36.026 148.984C35.8927 148.675 35.69 148.421 35.418 148.224C35.1513 148.027 34.7887 147.928 34.33 147.928C34.0847 147.928 33.842 147.968 33.602 148.048C33.362 148.128 33.1433 148.267 32.946 148.464C32.754 148.656 32.5993 148.923 32.482 149.264C32.3647 149.6 32.306 150.032 32.306 150.56L31.162 150.072C31.162 149.336 31.3033 148.669 31.586 148.072C31.874 147.475 32.2953 147 32.85 146.648C33.4047 146.291 34.0873 146.112 34.898 146.112C35.538 146.112 36.066 146.219 36.482 146.432C36.898 146.645 37.2287 146.917 37.474 147.248C37.7193 147.579 37.9007 147.931 38.018 148.304C38.1353 148.677 38.21 149.032 38.242 149.368C38.2793 149.699 38.298 149.968 38.298 150.176V155H36.346ZM30.354 155V146.36H32.074V149.04H32.306V155H30.354ZM40.5456 145.048V143.28H42.4736V145.048H40.5456ZM40.5456 155V146.36H42.4736V155H40.5456ZM45.03 155V143.24H46.958V155H45.03ZM52.8264 146.12C53.6957 146.12 54.461 146.309 55.1224 146.688C55.7837 147.067 56.2984 147.592 56.6664 148.264C57.0397 148.936 57.2264 149.709 57.2264 150.584C57.2264 151.528 57.045 152.349 56.6824 153.048C56.3197 153.741 55.8157 154.28 55.1704 154.664C54.525 155.048 53.7784 155.24 52.9304 155.24C52.0344 155.24 51.2744 155.032 50.6504 154.616C50.0264 154.195 49.5624 153.603 49.2584 152.84C48.9544 152.077 48.837 151.179 48.9064 150.144H50.8184V150.848C50.8237 151.787 50.989 152.472 51.3144 152.904C51.645 153.336 52.157 153.552 52.8504 153.552C53.645 153.552 54.2317 153.309 54.6104 152.824C54.9944 152.333 55.1864 151.619 55.1864 150.68C55.1864 149.8 54.9944 149.123 54.6104 148.648C54.2317 148.168 53.6717 147.928 52.9304 147.928C52.461 147.928 52.053 148.035 51.7064 148.248C51.3597 148.456 51.093 148.76 50.9064 149.16L49.0024 148.584C49.3384 147.8 49.8504 147.195 50.5384 146.768C51.2264 146.336 51.989 146.12 52.8264 146.12ZM55.7944 150.144V151.6H49.8504V150.144H55.7944ZM64.9554 155V150.84C64.9554 150.568 64.9367 150.267 64.8994 149.936C64.862 149.605 64.774 149.288 64.6354 148.984C64.502 148.675 64.2994 148.421 64.0274 148.224C63.7607 148.027 63.398 147.928 62.9394 147.928C62.694 147.928 62.4514 147.968 62.2114 148.048C61.9714 148.128 61.7527 148.267 61.5554 148.464C61.3634 148.656 61.2087 148.923 61.0914 149.264C60.974 149.6 60.9154 150.032 60.9154 150.56L59.7714 150.072C59.7714 149.336 59.9127 148.669 60.1954 148.072C60.4834 147.475 60.9047 147 61.4594 146.648C62.014 146.291 62.6967 146.112 63.5074 146.112C64.1474 146.112 64.6754 146.219 65.0914 146.432C65.5074 146.645 65.838 146.917 66.0834 147.248C66.3287 147.579 66.51 147.931 66.6274 148.304C66.7447 148.677 66.8194 149.032 66.8514 149.368C66.8887 149.699 66.9074 149.968 66.9074 150.176V155H64.9554ZM58.9634 155V146.36H60.6834V149.04H60.9154V155H58.9634ZM74.5341 155L71.3981 146.36H73.3261L75.5021 152.624L77.6701 146.36H79.6061L76.4701 155H74.5341ZM82.9735 155.24C82.3495 155.24 81.8215 155.123 81.3895 154.888C80.9575 154.648 80.6295 154.331 80.4055 153.936C80.1868 153.541 80.0775 153.107 80.0775 152.632C80.0775 152.216 80.1468 151.843 80.2855 151.512C80.4242 151.176 80.6375 150.888 80.9255 150.648C81.2135 150.403 81.5868 150.203 82.0455 150.048C82.3922 149.936 82.7975 149.835 83.2615 149.744C83.7308 149.653 84.2375 149.571 84.7815 149.496C85.3308 149.416 85.9042 149.331 86.5015 149.24L85.8135 149.632C85.8188 149.035 85.6855 148.595 85.4135 148.312C85.1415 148.029 84.6828 147.888 84.0375 147.888C83.6482 147.888 83.2722 147.979 82.9095 148.16C82.5468 148.341 82.2935 148.653 82.1495 149.096L80.3895 148.544C80.6028 147.813 81.0082 147.227 81.6055 146.784C82.2082 146.341 83.0188 146.12 84.0375 146.12C84.8055 146.12 85.4802 146.245 86.0615 146.496C86.6482 146.747 87.0828 147.157 87.3655 147.728C87.5202 148.032 87.6135 148.344 87.6455 148.664C87.6775 148.979 87.6935 149.323 87.6935 149.696V155H86.0055V153.128L86.2855 153.432C85.8962 154.056 85.4402 154.515 84.9175 154.808C84.4002 155.096 83.7522 155.24 82.9735 155.24ZM83.3575 153.704C83.7948 153.704 84.1682 153.627 84.4775 153.472C84.7868 153.317 85.0322 153.128 85.2135 152.904C85.4002 152.68 85.5255 152.469 85.5895 152.272C85.6908 152.027 85.7468 151.747 85.7575 151.432C85.7735 151.112 85.7815 150.853 85.7815 150.656L86.3735 150.832C85.7922 150.923 85.2935 151.003 84.8775 151.072C84.4615 151.141 84.1042 151.208 83.8055 151.272C83.5068 151.331 83.2428 151.397 83.0135 151.472C82.7895 151.552 82.6002 151.645 82.4455 151.752C82.2908 151.859 82.1708 151.981 82.0855 152.12C82.0055 152.259 81.9655 152.421 81.9655 152.608C81.9655 152.821 82.0188 153.011 82.1255 153.176C82.2322 153.336 82.3868 153.464 82.5895 153.56C82.7975 153.656 83.0535 153.704 83.3575 153.704ZM88.8163 155L91.9763 150.632L88.8803 146.36H91.1523L93.0963 149.12L95.0083 146.36H97.2803L94.1843 150.632L97.3603 155H95.0883L93.0963 152.144L91.0883 155H88.8163ZM103.7 155C103.129 155.107 102.569 155.152 102.02 155.136C101.476 155.125 100.988 155.027 100.556 154.84C100.124 154.648 99.7956 154.347 99.5716 153.936C99.3743 153.563 99.2703 153.181 99.2596 152.792C99.249 152.403 99.2436 151.963 99.2436 151.472V143.96H101.164V151.36C101.164 151.707 101.166 152.011 101.172 152.272C101.182 152.533 101.238 152.747 101.34 152.912C101.532 153.232 101.838 153.411 102.26 153.448C102.681 153.485 103.161 153.464 103.7 153.384V155ZM97.6756 147.872V146.36H103.7V147.872H97.6756ZM108.584 155.24C107.789 155.24 107.096 155.04 106.504 154.64C105.912 154.24 105.453 153.696 105.128 153.008C104.803 152.32 104.64 151.544 104.64 150.68C104.64 149.805 104.803 149.027 105.128 148.344C105.459 147.656 105.925 147.115 106.528 146.72C107.131 146.32 107.84 146.12 108.656 146.12C109.477 146.12 110.165 146.32 110.72 146.72C111.28 147.115 111.704 147.656 111.992 148.344C112.28 149.032 112.424 149.811 112.424 150.68C112.424 151.539 112.28 152.315 111.992 153.008C111.704 153.696 111.275 154.24 110.704 154.64C110.133 155.04 109.427 155.24 108.584 155.24ZM108.88 153.512C109.397 153.512 109.813 153.395 110.128 153.16C110.448 152.92 110.68 152.587 110.824 152.16C110.973 151.733 111.048 151.24 111.048 150.68C111.048 150.115 110.973 149.621 110.824 149.2C110.68 148.773 110.453 148.443 110.144 148.208C109.835 147.968 109.435 147.848 108.944 147.848C108.427 147.848 108 147.976 107.664 148.232C107.328 148.483 107.08 148.824 106.92 149.256C106.76 149.683 106.68 150.157 106.68 150.68C106.68 151.208 106.757 151.688 106.912 152.12C107.072 152.547 107.315 152.885 107.64 153.136C107.965 153.387 108.379 153.512 108.88 153.512ZM111.048 155V148.936H110.808V143.48H112.752V155H111.048ZM117.411 155.24C116.787 155.24 116.259 155.123 115.827 154.888C115.395 154.648 115.067 154.331 114.843 153.936C114.624 153.541 114.515 153.107 114.515 152.632C114.515 152.216 114.584 151.843 114.723 151.512C114.862 151.176 115.075 150.888 115.363 150.648C115.651 150.403 116.024 150.203 116.483 150.048C116.83 149.936 117.235 149.835 117.699 149.744C118.168 149.653 118.675 149.571 119.219 149.496C119.768 149.416 120.342 149.331 120.939 149.24L120.251 149.632C120.256 149.035 120.123 148.595 119.851 148.312C119.579 148.029 119.12 147.888 118.475 147.888C118.086 147.888 117.71 147.979 117.347 148.16C116.984 148.341 116.731 148.653 116.587 149.096L114.827 148.544C115.04 147.813 115.446 147.227 116.043 146.784C116.646 146.341 117.456 146.12 118.475 146.12C119.243 146.12 119.918 146.245 120.499 146.496C121.086 146.747 121.52 147.157 121.803 147.728C121.958 148.032 122.051 148.344 122.083 148.664C122.115 148.979 122.131 149.323 122.131 149.696V155H120.443V153.128L120.723 153.432C120.334 154.056 119.878 154.515 119.355 154.808C118.838 155.096 118.19 155.24 117.411 155.24ZM117.795 153.704C118.232 153.704 118.606 153.627 118.915 153.472C119.224 153.317 119.47 153.128 119.651 152.904C119.838 152.68 119.963 152.469 120.027 152.272C120.128 152.027 120.184 151.747 120.195 151.432C120.211 151.112 120.219 150.853 120.219 150.656L120.811 150.832C120.23 150.923 119.731 151.003 119.315 151.072C118.899 151.141 118.542 151.208 118.243 151.272C117.944 151.331 117.68 151.397 117.451 151.472C117.227 151.552 117.038 151.645 116.883 151.752C116.728 151.859 116.608 151.981 116.523 152.12C116.443 152.259 116.403 152.421 116.403 152.608C116.403 152.821 116.456 153.011 116.563 153.176C116.67 153.336 116.824 153.464 117.027 153.56C117.235 153.656 117.491 153.704 117.795 153.704Z" fill="white"/>
<path d="M379.503 155V145.584L377.343 146.904V144.776L379.503 143.48H381.471V155H379.503ZM391.058 155.24C389.991 155.24 389.124 155 388.458 154.52C387.791 154.04 387.386 153.365 387.242 152.496L389.21 152.192C389.311 152.619 389.535 152.955 389.882 153.2C390.228 153.445 390.666 153.568 391.194 153.568C391.658 153.568 392.015 153.477 392.266 153.296C392.522 153.109 392.65 152.856 392.65 152.536C392.65 152.339 392.602 152.181 392.506 152.064C392.415 151.941 392.212 151.824 391.898 151.712C391.583 151.6 391.1 151.459 390.45 151.288C389.724 151.096 389.148 150.891 388.722 150.672C388.295 150.448 387.988 150.184 387.802 149.88C387.615 149.576 387.522 149.208 387.522 148.776C387.522 148.237 387.663 147.768 387.946 147.368C388.228 146.968 388.623 146.661 389.13 146.448C389.636 146.229 390.234 146.12 390.922 146.12C391.594 146.12 392.188 146.224 392.706 146.432C393.228 146.64 393.65 146.936 393.97 147.32C394.29 147.704 394.487 148.155 394.562 148.672L392.594 149.024C392.546 148.656 392.378 148.365 392.09 148.152C391.807 147.939 391.428 147.819 390.954 147.792C390.5 147.765 390.135 147.835 389.858 148C389.58 148.16 389.442 148.387 389.442 148.68C389.442 148.845 389.498 148.987 389.61 149.104C389.722 149.221 389.946 149.339 390.282 149.456C390.623 149.573 391.13 149.717 391.802 149.888C392.49 150.064 393.039 150.267 393.45 150.496C393.866 150.72 394.164 150.989 394.346 151.304C394.532 151.619 394.626 152 394.626 152.448C394.626 153.317 394.308 154 393.674 154.496C393.044 154.992 392.172 155.24 391.058 155.24ZM398.794 155.24C398.17 155.24 397.642 155.123 397.21 154.888C396.778 154.648 396.45 154.331 396.226 153.936C396.007 153.541 395.898 153.107 395.898 152.632C395.898 152.216 395.967 151.843 396.106 151.512C396.244 151.176 396.458 150.888 396.746 150.648C397.034 150.403 397.407 150.203 397.866 150.048C398.212 149.936 398.618 149.835 399.082 149.744C399.551 149.653 400.058 149.571 400.602 149.496C401.151 149.416 401.724 149.331 402.322 149.24L401.634 149.632C401.639 149.035 401.506 148.595 401.234 148.312C400.962 148.029 400.503 147.888 399.858 147.888C399.468 147.888 399.092 147.979 398.73 148.16C398.367 148.341 398.114 148.653 397.97 149.096L396.21 148.544C396.423 147.813 396.828 147.227 397.426 146.784C398.028 146.341 398.839 146.12 399.858 146.12C400.626 146.12 401.3 146.245 401.882 146.496C402.468 146.747 402.903 147.157 403.186 147.728C403.34 148.032 403.434 148.344 403.466 148.664C403.498 148.979 403.514 149.323 403.514 149.696V155H401.826V153.128L402.106 153.432C401.716 154.056 401.26 154.515 400.738 154.808C400.22 155.096 399.572 155.24 398.794 155.24ZM399.178 153.704C399.615 153.704 399.988 153.627 400.298 153.472C400.607 153.317 400.852 153.128 401.034 152.904C401.22 152.68 401.346 152.469 401.41 152.272C401.511 152.027 401.567 151.747 401.578 151.432C401.594 151.112 401.602 150.853 401.602 150.656L402.194 150.832C401.612 150.923 401.114 151.003 400.698 151.072C400.282 151.141 399.924 151.208 399.626 151.272C399.327 151.331 399.063 151.397 398.834 151.472C398.61 151.552 398.42 151.645 398.266 151.752C398.111 151.859 397.991 151.981 397.906 152.12C397.826 152.259 397.786 152.421 397.786 152.608C397.786 152.821 397.839 153.011 397.946 153.176C398.052 153.336 398.207 153.464 398.41 153.56C398.618 153.656 398.874 153.704 399.178 153.704ZM408.013 155.24C407.389 155.24 406.861 155.123 406.429 154.888C405.997 154.648 405.669 154.331 405.445 153.936C405.226 153.541 405.117 153.107 405.117 152.632C405.117 152.216 405.186 151.843 405.325 151.512C405.463 151.176 405.677 150.888 405.965 150.648C406.253 150.403 406.626 150.203 407.085 150.048C407.431 149.936 407.837 149.835 408.301 149.744C408.77 149.653 409.277 149.571 409.821 149.496C410.37 149.416 410.943 149.331 411.541 149.24L410.853 149.632C410.858 149.035 410.725 148.595 410.453 148.312C410.181 148.029 409.722 147.888 409.077 147.888C408.687 147.888 408.311 147.979 407.949 148.16C407.586 148.341 407.333 148.653 407.189 149.096L405.429 148.544C405.642 147.813 406.047 147.227 406.645 146.784C407.247 146.341 408.058 146.12 409.077 146.12C409.845 146.12 410.519 146.245 411.101 146.496C411.687 146.747 412.122 147.157 412.405 147.728C412.559 148.032 412.653 148.344 412.685 148.664C412.717 148.979 412.733 149.323 412.733 149.696V155H411.045V153.128L411.325 153.432C410.935 154.056 410.479 154.515 409.957 154.808C409.439 155.096 408.791 155.24 408.013 155.24ZM408.397 153.704C408.834 153.704 409.207 153.627 409.517 153.472C409.826 153.317 410.071 153.128 410.253 152.904C410.439 152.68 410.565 152.469 410.629 152.272C410.73 152.027 410.786 151.747 410.797 151.432C410.813 151.112 410.821 150.853 410.821 150.656L411.413 150.832C410.831 150.923 410.333 151.003 409.917 151.072C409.501 151.141 409.143 151.208 408.845 151.272C408.546 151.331 408.282 151.397 408.053 151.472C407.829 151.552 407.639 151.645 407.485 151.752C407.33 151.859 407.21 151.981 407.125 152.12C407.045 152.259 407.005 152.421 407.005 152.608C407.005 152.821 407.058 153.011 407.165 153.176C407.271 153.336 407.426 153.464 407.629 153.56C407.837 153.656 408.093 153.704 408.397 153.704ZM419.879 155C419.309 155.107 418.749 155.152 418.199 155.136C417.655 155.125 417.167 155.027 416.735 154.84C416.303 154.648 415.975 154.347 415.751 153.936C415.554 153.563 415.45 153.181 415.439 152.792C415.429 152.403 415.423 151.963 415.423 151.472V143.96H417.343V151.36C417.343 151.707 417.346 152.011 417.351 152.272C417.362 152.533 417.418 152.747 417.519 152.912C417.711 153.232 418.018 153.411 418.439 153.448C418.861 153.485 419.341 153.464 419.879 153.384V155ZM413.855 147.872V146.36H419.879V147.872H413.855Z" fill="white"/>
<path d="M697.292 155V143.48H702.052C702.164 143.48 702.308 143.485 702.484 143.496C702.66 143.501 702.823 143.517 702.972 143.544C703.639 143.645 704.188 143.867 704.62 144.208C705.057 144.549 705.38 144.981 705.588 145.504C705.801 146.021 705.908 146.597 705.908 147.232C705.908 148.171 705.671 148.979 705.196 149.656C704.721 150.328 703.993 150.744 703.012 150.904L702.188 150.976H699.22V155H697.292ZM703.908 155L701.636 150.312L703.596 149.88L706.092 155H703.908ZM699.22 149.176H701.972C702.079 149.176 702.199 149.171 702.332 149.16C702.465 149.149 702.588 149.128 702.7 149.096C703.02 149.016 703.271 148.875 703.452 148.672C703.639 148.469 703.769 148.24 703.844 147.984C703.924 147.728 703.964 147.477 703.964 147.232C703.964 146.987 703.924 146.736 703.844 146.48C703.769 146.219 703.639 145.987 703.452 145.784C703.271 145.581 703.02 145.44 702.7 145.36C702.588 145.328 702.465 145.309 702.332 145.304C702.199 145.293 702.079 145.288 701.972 145.288H699.22V149.176ZM708.014 145.048V143.28H709.942V145.048H708.014ZM708.014 155V146.36H709.942V155H708.014ZM713.475 158.84L715.139 154.272L715.171 155.616L711.403 146.36H713.411L716.083 153.208H715.571L718.171 146.36H720.099L715.283 158.84H713.475ZM723.395 155.24C722.771 155.24 722.243 155.123 721.811 154.888C721.379 154.648 721.051 154.331 720.827 153.936C720.609 153.541 720.499 153.107 720.499 152.632C720.499 152.216 720.569 151.843 720.707 151.512C720.846 151.176 721.059 150.888 721.347 150.648C721.635 150.403 722.009 150.203 722.467 150.048C722.814 149.936 723.219 149.835 723.683 149.744C724.153 149.653 724.659 149.571 725.203 149.496C725.753 149.416 726.326 149.331 726.923 149.24L726.235 149.632C726.241 149.035 726.107 148.595 725.835 148.312C725.563 148.029 725.105 147.888 724.459 147.888C724.07 147.888 723.694 147.979 723.331 148.16C722.969 148.341 722.715 148.653 722.571 149.096L720.811 148.544C721.025 147.813 721.43 147.227 722.027 146.784C722.63 146.341 723.441 146.12 724.459 146.12C725.227 146.12 725.902 146.245 726.483 146.496C727.07 146.747 727.505 147.157 727.787 147.728C727.942 148.032 728.035 148.344 728.067 148.664C728.099 148.979 728.115 149.323 728.115 149.696V155H726.427V153.128L726.707 153.432C726.318 154.056 725.862 154.515 725.339 154.808C724.822 155.096 724.174 155.24 723.395 155.24ZM723.779 153.704C724.217 153.704 724.59 153.627 724.899 153.472C725.209 153.317 725.454 153.128 725.635 152.904C725.822 152.68 725.947 152.469 726.011 152.272C726.113 152.027 726.169 151.747 726.179 151.432C726.195 151.112 726.203 150.853 726.203 150.656L726.795 150.832C726.214 150.923 725.715 151.003 725.299 151.072C724.883 151.141 724.526 151.208 724.227 151.272C723.929 151.331 723.665 151.397 723.435 151.472C723.211 151.552 723.022 151.645 722.867 151.752C722.713 151.859 722.593 151.981 722.507 152.12C722.427 152.259 722.387 152.421 722.387 152.608C722.387 152.821 722.441 153.011 722.547 153.176C722.654 153.336 722.809 153.464 723.011 153.56C723.219 153.656 723.475 153.704 723.779 153.704ZM729.398 155V154.736L733.974 148.048H729.862V146.36H736.974V146.632L732.414 153.312H736.782V155H729.398ZM738.889 145.048V143.28H740.817V145.048H738.889ZM738.889 155V146.36H740.817V155H738.889ZM744.35 158.84L746.014 154.272L746.046 155.616L742.278 146.36H744.286L746.958 153.208H746.446L749.046 146.36H750.974L746.158 158.84H744.35ZM753.303 158.84L754.967 154.272L754.999 155.616L751.231 146.36H753.239L755.911 153.208H755.399L757.999 146.36H759.927L755.111 158.84H753.303ZM763.224 155.24C762.6 155.24 762.072 155.123 761.64 154.888C761.208 154.648 760.88 154.331 760.656 153.936C760.437 153.541 760.328 153.107 760.328 152.632C760.328 152.216 760.397 151.843 760.536 151.512C760.674 151.176 760.888 150.888 761.176 150.648C761.464 150.403 761.837 150.203 762.296 150.048C762.642 149.936 763.048 149.835 763.512 149.744C763.981 149.653 764.488 149.571 765.032 149.496C765.581 149.416 766.154 149.331 766.752 149.24L766.064 149.632C766.069 149.035 765.936 148.595 765.664 148.312C765.392 148.029 764.933 147.888 764.288 147.888C763.898 147.888 763.522 147.979 763.16 148.16C762.797 148.341 762.544 148.653 762.4 149.096L760.64 148.544C760.853 147.813 761.258 147.227 761.856 146.784C762.458 146.341 763.269 146.12 764.288 146.12C765.056 146.12 765.73 146.245 766.312 146.496C766.898 146.747 767.333 147.157 767.616 147.728C767.77 148.032 767.864 148.344 767.896 148.664C767.928 148.979 767.944 149.323 767.944 149.696V155H766.256V153.128L766.536 153.432C766.146 154.056 765.69 154.515 765.168 154.808C764.65 155.096 764.002 155.24 763.224 155.24ZM763.608 153.704C764.045 153.704 764.418 153.627 764.728 153.472C765.037 153.317 765.282 153.128 765.464 152.904C765.65 152.68 765.776 152.469 765.84 152.272C765.941 152.027 765.997 151.747 766.008 151.432C766.024 151.112 766.032 150.853 766.032 150.656L766.624 150.832C766.042 150.923 765.544 151.003 765.128 151.072C764.712 151.141 764.354 151.208 764.056 151.272C763.757 151.331 763.493 151.397 763.264 151.472C763.04 151.552 762.85 151.645 762.696 151.752C762.541 151.859 762.421 151.981 762.336 152.12C762.256 152.259 762.216 152.421 762.216 152.608C762.216 152.821 762.269 153.011 762.376 153.176C762.482 153.336 762.637 153.464 762.84 153.56C763.048 153.656 763.304 153.704 763.608 153.704ZM775.09 155C774.52 155.107 773.96 155.152 773.41 155.136C772.866 155.125 772.378 155.027 771.946 154.84C771.514 154.648 771.186 154.347 770.962 153.936C770.765 153.563 770.661 153.181 770.65 152.792C770.64 152.403 770.634 151.963 770.634 151.472V143.96H772.554V151.36C772.554 151.707 772.557 152.011 772.562 152.272C772.573 152.533 772.629 152.747 772.73 152.912C772.922 153.232 773.229 153.411 773.65 153.448C774.072 153.485 774.552 153.464 775.09 153.384V155ZM769.066 147.872V146.36H775.09V147.872H769.066Z" fill="white"/>
<line x1="135" y1="79" x2="326" y2="79" stroke="#8A7E7E" stroke-width="2" stroke-linecap="round" stroke-dasharray="5 5"/>
<line x1="472" y1="79" x2="663" y2="79" stroke="#8A7E7E" stroke-width="2" stroke-linecap="round" stroke-dasharray="5 5"/>
</svg>
