<svg width="1048" height="120" viewBox="0 0 1048 120" fill="none" xmlns="http://www.w3.org/2000/svg">
<g filter="url(#filter0_d_55_2906)">
<rect x="29" y="29" width="990" height="62" rx="10" fill="#302B2B"/>
<path d="M75.6999 67.73H66.2999C65.5599 67.73 64.8099 67.2 64.5599 66.51L60.4199 54.92C59.9099 53.46 60.2799 52.79 60.6799 52.49C61.0799 52.19 61.8299 52.01 63.0899 52.91L66.9899 55.7C67.1099 55.77 67.2199 55.8 67.2999 55.78C67.3899 55.75 67.4599 55.67 67.5099 55.53L69.2699 50.84C69.7999 49.44 70.5799 49.23 70.9999 49.23C71.4199 49.23 72.1999 49.44 72.7299 50.84L74.4899 55.53C74.5399 55.66 74.6099 55.75 74.6999 55.78C74.7899 55.81 74.8999 55.78 75.0099 55.69L78.6699 53.08C80.0099 52.12 80.7899 52.31 81.2199 52.62C81.6399 52.94 82.0299 53.65 81.4799 55.2L77.4399 66.51C77.1899 67.2 76.4399 67.73 75.6999 67.73ZM61.6799 53.81C61.6999 53.95 61.7399 54.15 61.8399 54.41L65.9799 66C66.0199 66.1 66.1999 66.23 66.2999 66.23H75.6999C75.8099 66.23 75.9899 66.1 76.0199 66L80.0599 54.7C80.1999 54.32 80.2399 54.06 80.2499 53.91C80.0999 53.96 79.8699 54.07 79.5399 54.31L75.8799 56.92C75.3799 57.27 74.7899 57.38 74.2599 57.22C73.7299 57.06 73.2999 56.64 73.0799 56.07L71.3199 51.38C71.1899 51.03 71.0699 50.86 70.9999 50.78C70.9299 50.86 70.8099 51.03 70.6799 51.37L68.9199 56.06C68.7099 56.63 68.2799 57.05 67.7399 57.21C67.2099 57.37 66.6099 57.26 66.1199 56.91L62.2199 54.12C61.9899 53.96 61.8099 53.86 61.6799 53.81Z" fill="#EBB44A"/>
<path d="M76.5 70.75H65.5C65.09 70.75 64.75 70.41 64.75 70C64.75 69.59 65.09 69.25 65.5 69.25H76.5C76.91 69.25 77.25 69.59 77.25 70C77.25 70.41 76.91 70.75 76.5 70.75Z" fill="#EBB44A"/>
<path d="M73.5 62.75H68.5C68.09 62.75 67.75 62.41 67.75 62C67.75 61.59 68.09 61.25 68.5 61.25H73.5C73.91 61.25 74.25 61.59 74.25 62C74.25 62.41 73.91 62.75 73.5 62.75Z" fill="#EBB44A"/>
<path d="M103.32 66L107.176 54.48H109.16L113.016 66H111.536L107.928 55.312H108.376L104.8 66H103.32ZM105.176 63.304V61.968H111.16V63.304H105.176ZM118.416 66.24C117.605 66.24 116.923 66.04 116.368 65.64C115.813 65.2347 115.392 64.688 115.104 64C114.821 63.3067 114.68 62.5307 114.68 61.672C114.68 60.8027 114.821 60.024 115.104 59.336C115.392 58.648 115.813 58.1067 116.368 57.712C116.928 57.3173 117.613 57.12 118.424 57.12C119.224 57.12 119.912 57.32 120.488 57.72C121.069 58.1147 121.515 58.656 121.824 59.344C122.133 60.032 122.288 60.808 122.288 61.672C122.288 62.536 122.133 63.312 121.824 64C121.515 64.688 121.069 65.2347 120.488 65.64C119.912 66.04 119.221 66.24 118.416 66.24ZM114.44 66V54.48H115.872V59.64H115.712V66H114.44ZM118.24 64.936C118.811 64.936 119.283 64.792 119.656 64.504C120.029 64.216 120.309 63.8267 120.496 63.336C120.683 62.84 120.776 62.2853 120.776 61.672C120.776 61.064 120.683 60.5147 120.496 60.024C120.315 59.5333 120.032 59.144 119.648 58.856C119.269 58.568 118.787 58.424 118.2 58.424C117.64 58.424 117.176 58.5627 116.808 58.84C116.44 59.112 116.165 59.4933 115.984 59.984C115.803 60.4693 115.712 61.032 115.712 61.672C115.712 62.3013 115.8 62.864 115.976 63.36C116.157 63.8507 116.435 64.2373 116.808 64.52C117.181 64.7973 117.659 64.936 118.24 64.936ZM127.434 66.24C126.629 66.24 125.938 66.04 125.362 65.64C124.786 65.2347 124.341 64.688 124.026 64C123.717 63.312 123.562 62.536 123.562 61.672C123.562 60.808 123.717 60.032 124.026 59.344C124.341 58.656 124.786 58.1147 125.362 57.72C125.938 57.32 126.626 57.12 127.426 57.12C128.242 57.12 128.927 57.3173 129.482 57.712C130.037 58.1067 130.455 58.648 130.738 59.336C131.026 60.024 131.17 60.8027 131.17 61.672C131.17 62.5307 131.026 63.3067 130.738 64C130.455 64.688 130.037 65.2347 129.482 65.64C128.927 66.04 128.245 66.24 127.434 66.24ZM127.61 64.936C128.191 64.936 128.669 64.7973 129.042 64.52C129.415 64.2373 129.69 63.8507 129.866 63.36C130.047 62.864 130.138 62.3013 130.138 61.672C130.138 61.032 130.047 60.4693 129.866 59.984C129.69 59.4933 129.418 59.112 129.05 58.84C128.682 58.5627 128.215 58.424 127.65 58.424C127.063 58.424 126.578 58.568 126.194 58.856C125.815 59.144 125.533 59.5333 125.346 60.024C125.165 60.5147 125.074 61.064 125.074 61.672C125.074 62.2853 125.167 62.84 125.354 63.336C125.541 63.8267 125.821 64.216 126.194 64.504C126.573 64.792 127.045 64.936 127.61 64.936ZM130.138 66V59.64H129.978V54.48H131.41V66H130.138ZM136.931 66.224C136.377 66.224 135.899 66.136 135.499 65.96C135.105 65.784 134.777 65.5493 134.515 65.256C134.254 64.9627 134.049 64.6373 133.899 64.28C133.75 63.9227 133.643 63.5573 133.579 63.184C133.521 62.8107 133.491 62.4613 133.491 62.136V57.36H134.931V61.688C134.931 62.0933 134.969 62.4853 135.043 62.864C135.118 63.2427 135.243 63.584 135.419 63.888C135.601 64.192 135.841 64.432 136.139 64.608C136.443 64.784 136.822 64.872 137.275 64.872C137.633 64.872 137.958 64.8107 138.251 64.688C138.545 64.5653 138.795 64.384 139.003 64.144C139.211 63.8987 139.371 63.5893 139.483 63.216C139.595 62.8427 139.651 62.408 139.651 61.912L140.587 62.2C140.587 63.032 140.435 63.7493 140.131 64.352C139.833 64.9547 139.409 65.4187 138.859 65.744C138.315 66.064 137.673 66.224 136.931 66.224ZM139.811 66V63.688H139.651V57.36H141.083V66H139.811ZM143.483 66V54.24H144.907V66H143.483ZM147.468 66V54.24H148.892V66H147.468ZM153.748 66.24C153.103 66.24 152.561 66.1227 152.124 65.888C151.692 65.648 151.364 65.3333 151.14 64.944C150.921 64.5547 150.812 64.128 150.812 63.664C150.812 63.2107 150.897 62.8187 151.068 62.488C151.244 62.152 151.489 61.8747 151.804 61.656C152.119 61.432 152.495 61.256 152.932 61.128C153.343 61.016 153.801 60.92 154.308 60.84C154.82 60.7547 155.337 60.6773 155.86 60.608C156.383 60.5387 156.871 60.472 157.324 60.408L156.812 60.704C156.828 59.936 156.673 59.368 156.348 59C156.028 58.632 155.473 58.448 154.684 58.448C154.161 58.448 153.703 58.568 153.308 58.808C152.919 59.0427 152.644 59.4267 152.484 59.96L151.132 59.552C151.34 58.7947 151.743 58.2 152.34 57.768C152.937 57.336 153.724 57.12 154.7 57.12C155.484 57.12 156.156 57.2613 156.716 57.544C157.281 57.8213 157.687 58.2427 157.932 58.808C158.055 59.0747 158.132 59.3653 158.164 59.68C158.196 59.9893 158.212 60.3147 158.212 60.656V66H156.948V63.928L157.244 64.12C156.919 64.8187 156.463 65.3467 155.876 65.704C155.295 66.0613 154.585 66.24 153.748 66.24ZM153.964 65.048C154.476 65.048 154.919 64.9573 155.292 64.776C155.671 64.5893 155.975 64.3467 156.204 64.048C156.433 63.744 156.583 63.4133 156.652 63.056C156.732 62.7893 156.775 62.4933 156.78 62.168C156.791 61.8373 156.796 61.584 156.796 61.408L157.292 61.624C156.828 61.688 156.372 61.7493 155.924 61.808C155.476 61.8667 155.052 61.9307 154.652 62C154.252 62.064 153.892 62.1413 153.572 62.232C153.337 62.3067 153.116 62.4027 152.908 62.52C152.705 62.6373 152.54 62.7893 152.412 62.976C152.289 63.1573 152.228 63.384 152.228 63.656C152.228 63.8907 152.287 64.1147 152.404 64.328C152.527 64.5413 152.713 64.7147 152.964 64.848C153.22 64.9813 153.553 65.048 153.964 65.048ZM161.008 69.84L162.68 65.296L162.704 66.64L158.928 57.36H160.424L163.384 64.824H162.872L165.648 57.36H167.095L162.392 69.84H161.008ZM171.848 66.24C171 66.24 170.259 66.0533 169.624 65.68C168.995 65.3013 168.504 64.776 168.152 64.104C167.8 63.4267 167.624 62.6373 167.624 61.736C167.624 60.792 167.798 59.976 168.144 59.288C168.491 58.5947 168.974 58.0613 169.592 57.688C170.216 57.3093 170.947 57.12 171.784 57.12C172.654 57.12 173.392 57.32 174 57.72C174.614 58.12 175.072 58.6907 175.376 59.432C175.686 60.1733 175.819 61.056 175.776 62.08H174.336V61.568C174.32 60.5067 174.104 59.7147 173.688 59.192C173.272 58.664 172.654 58.4 171.832 58.4C170.952 58.4 170.283 58.6827 169.824 59.248C169.366 59.8133 169.136 60.624 169.136 61.68C169.136 62.6987 169.366 63.488 169.824 64.048C170.283 64.608 170.936 64.888 171.784 64.888C172.355 64.888 172.851 64.7573 173.272 64.496C173.694 64.2347 174.024 63.8587 174.264 63.368L175.632 63.84C175.296 64.6027 174.79 65.1947 174.112 65.616C173.44 66.032 172.686 66.24 171.848 66.24ZM168.656 62.08V60.936H175.04V62.08H168.656ZM179.581 66L176.445 57.36H177.885L180.309 64.184L182.725 57.36H184.173L181.037 66H179.581ZM192.911 66.24C192.095 66.24 191.359 66.1013 190.703 65.824C190.052 65.5467 189.514 65.152 189.087 64.64C188.666 64.1227 188.391 63.512 188.263 62.808L189.735 62.576C189.922 63.3013 190.308 63.8693 190.895 64.28C191.487 64.6853 192.183 64.888 192.983 64.888C193.5 64.888 193.967 64.808 194.383 64.648C194.804 64.4827 195.138 64.248 195.383 63.944C195.628 63.64 195.751 63.28 195.751 62.864C195.751 62.608 195.706 62.3893 195.615 62.208C195.53 62.0213 195.41 61.864 195.255 61.736C195.106 61.6027 194.935 61.4907 194.743 61.4C194.551 61.3093 194.351 61.2347 194.143 61.176L191.207 60.304C190.887 60.208 190.578 60.088 190.279 59.944C189.98 59.7947 189.714 59.6107 189.479 59.392C189.244 59.168 189.058 58.9013 188.919 58.592C188.78 58.2773 188.711 57.9067 188.711 57.48C188.711 56.7973 188.887 56.216 189.239 55.736C189.596 55.2507 190.079 54.88 190.687 54.624C191.295 54.368 191.98 54.2427 192.743 54.248C193.516 54.2533 194.207 54.392 194.815 54.664C195.428 54.9307 195.935 55.3147 196.335 55.816C196.74 56.3173 197.012 56.9173 197.151 57.616L195.639 57.88C195.559 57.4107 195.38 57.008 195.103 56.672C194.831 56.3307 194.49 56.0693 194.079 55.888C193.668 55.7013 193.218 55.6053 192.727 55.6C192.258 55.5947 191.834 55.6693 191.455 55.824C191.076 55.9787 190.775 56.1947 190.551 56.472C190.327 56.744 190.215 57.0587 190.215 57.416C190.215 57.768 190.316 58.0533 190.519 58.272C190.722 58.4853 190.97 58.656 191.263 58.784C191.562 58.9067 191.852 59.008 192.135 59.088L194.327 59.72C194.578 59.7893 194.866 59.8853 195.191 60.008C195.522 60.1307 195.842 60.304 196.151 60.528C196.46 60.7467 196.716 61.04 196.919 61.408C197.122 61.7707 197.223 62.2293 197.223 62.784C197.223 63.3387 197.111 63.832 196.887 64.264C196.668 64.696 196.362 65.0587 195.967 65.352C195.572 65.64 195.114 65.8587 194.591 66.008C194.068 66.1627 193.508 66.24 192.911 66.24ZM202.365 57.12C203.219 57.12 203.96 57.3067 204.589 57.68C205.224 58.0533 205.715 58.5787 206.061 59.256C206.413 59.9333 206.589 60.7227 206.589 61.624C206.589 62.568 206.416 63.384 206.069 64.072C205.728 64.76 205.245 65.2933 204.621 65.672C203.997 66.0507 203.267 66.24 202.429 66.24C201.565 66.24 200.827 66.04 200.213 65.64C199.605 65.24 199.147 64.6693 198.837 63.928C198.533 63.1867 198.403 62.304 198.445 61.28H199.877V61.792C199.893 62.848 200.109 63.64 200.525 64.168C200.947 64.696 201.565 64.96 202.381 64.96C203.267 64.96 203.936 64.6773 204.389 64.112C204.848 63.5467 205.077 62.736 205.077 61.68C205.077 60.656 204.848 59.8667 204.389 59.312C203.936 58.752 203.283 58.472 202.429 58.472C201.864 58.472 201.368 58.6027 200.941 58.864C200.52 59.12 200.189 59.496 199.949 59.992L198.581 59.52C198.923 58.752 199.429 58.16 200.101 57.744C200.779 57.328 201.533 57.12 202.365 57.12ZM205.557 61.28V62.424H199.173V61.28H205.557ZM214.506 66V61.672C214.506 61.2613 214.469 60.8667 214.394 60.488C214.325 60.1093 214.2 59.7707 214.018 59.472C213.842 59.168 213.602 58.928 213.298 58.752C213 58.576 212.621 58.488 212.162 58.488C211.805 58.488 211.48 58.5493 211.186 58.672C210.898 58.7893 210.65 58.9707 210.442 59.216C210.234 59.4613 210.072 59.7707 209.954 60.144C209.842 60.512 209.786 60.9467 209.786 61.448L208.85 61.16C208.85 60.3227 209 59.6053 209.298 59.008C209.602 58.4053 210.026 57.944 210.57 57.624C211.12 57.2987 211.765 57.136 212.506 57.136C213.066 57.136 213.544 57.224 213.938 57.4C214.333 57.576 214.661 57.8107 214.922 58.104C215.184 58.392 215.389 58.7173 215.538 59.08C215.688 59.4373 215.792 59.8027 215.85 60.176C215.914 60.544 215.946 60.8933 215.946 61.224V66H214.506ZM208.346 66V57.36H209.626V59.672H209.786V66H208.346ZM220.482 66.24C219.837 66.24 219.296 66.1227 218.858 65.888C218.426 65.648 218.098 65.3333 217.874 64.944C217.656 64.5547 217.546 64.128 217.546 63.664C217.546 63.2107 217.632 62.8187 217.802 62.488C217.978 62.152 218.224 61.8747 218.538 61.656C218.853 61.432 219.229 61.256 219.666 61.128C220.077 61.016 220.536 60.92 221.042 60.84C221.554 60.7547 222.072 60.6773 222.594 60.608C223.117 60.5387 223.605 60.472 224.058 60.408L223.546 60.704C223.562 59.936 223.408 59.368 223.082 59C222.762 58.632 222.208 58.448 221.418 58.448C220.896 58.448 220.437 58.568 220.042 58.808C219.653 59.0427 219.378 59.4267 219.218 59.96L217.866 59.552C218.074 58.7947 218.477 58.2 219.074 57.768C219.672 57.336 220.458 57.12 221.434 57.12C222.218 57.12 222.89 57.2613 223.45 57.544C224.016 57.8213 224.421 58.2427 224.666 58.808C224.789 59.0747 224.866 59.3653 224.898 59.68C224.93 59.9893 224.946 60.3147 224.946 60.656V66H223.682V63.928L223.978 64.12C223.653 64.8187 223.197 65.3467 222.61 65.704C222.029 66.0613 221.32 66.24 220.482 66.24ZM220.698 65.048C221.21 65.048 221.653 64.9573 222.026 64.776C222.405 64.5893 222.709 64.3467 222.938 64.048C223.168 63.744 223.317 63.4133 223.386 63.056C223.466 62.7893 223.509 62.4933 223.514 62.168C223.525 61.8373 223.53 61.584 223.53 61.408L224.026 61.624C223.562 61.688 223.106 61.7493 222.658 61.808C222.21 61.8667 221.786 61.9307 221.386 62C220.986 62.064 220.626 62.1413 220.306 62.232C220.072 62.3067 219.85 62.4027 219.642 62.52C219.44 62.6373 219.274 62.7893 219.146 62.976C219.024 63.1573 218.962 63.384 218.962 63.656C218.962 63.8907 219.021 64.1147 219.138 64.328C219.261 64.5413 219.448 64.7147 219.698 64.848C219.954 64.9813 220.288 65.048 220.698 65.048ZM233.178 66V61.672C233.178 61.2613 233.141 60.8667 233.066 60.488C232.997 60.1093 232.872 59.7707 232.69 59.472C232.514 59.168 232.274 58.928 231.97 58.752C231.672 58.576 231.293 58.488 230.834 58.488C230.477 58.488 230.152 58.5493 229.858 58.672C229.57 58.7893 229.322 58.9707 229.114 59.216C228.906 59.4613 228.744 59.7707 228.626 60.144C228.514 60.512 228.458 60.9467 228.458 61.448L227.522 61.16C227.522 60.3227 227.672 59.6053 227.97 59.008C228.274 58.4053 228.698 57.944 229.242 57.624C229.792 57.2987 230.437 57.136 231.178 57.136C231.738 57.136 232.216 57.224 232.61 57.4C233.005 57.576 233.333 57.8107 233.594 58.104C233.856 58.392 234.061 58.7173 234.21 59.08C234.36 59.4373 234.464 59.8027 234.522 60.176C234.586 60.544 234.618 60.8933 234.618 61.224V66H233.178ZM227.018 66V57.36H228.298V59.672H228.458V66H227.018Z" fill="white"/>
<path d="M724.8 68.992L724.808 67.712L729.92 63.112C730.347 62.728 730.632 62.3653 730.776 62.024C730.925 61.6773 731 61.3227 731 60.96C731 60.5173 730.899 60.1173 730.696 59.76C730.493 59.4027 730.216 59.12 729.864 58.912C729.517 58.704 729.123 58.6 728.68 58.6C728.221 58.6 727.813 58.7093 727.456 58.928C727.099 59.1413 726.816 59.4267 726.608 59.784C726.405 60.1413 726.307 60.5307 726.312 60.952H724.856C724.856 60.2267 725.024 59.5867 725.36 59.032C725.696 58.472 726.152 58.0347 726.728 57.72C727.309 57.4 727.968 57.24 728.704 57.24C729.419 57.24 730.059 57.4053 730.624 57.736C731.189 58.0613 731.635 58.5067 731.96 59.072C732.291 59.632 732.456 60.2667 732.456 60.976C732.456 61.4773 732.392 61.912 732.264 62.28C732.141 62.648 731.949 62.9893 731.688 63.304C731.427 63.6133 731.099 63.944 730.704 64.296L726.456 68.112L726.272 67.632H732.456V68.992H724.8ZM737.778 69.24C737.186 69.24 736.634 69.1173 736.122 68.872C735.615 68.6267 735.181 68.2907 734.818 67.864C734.461 67.432 734.205 66.936 734.05 66.376L735.418 66.008C735.514 66.3867 735.685 66.7147 735.93 66.992C736.175 67.264 736.461 67.4773 736.786 67.632C737.117 67.7813 737.461 67.856 737.818 67.856C738.287 67.856 738.709 67.744 739.082 67.52C739.461 67.2907 739.759 66.9893 739.978 66.616C740.197 66.2373 740.306 65.824 740.306 65.376C740.306 64.912 740.191 64.4933 739.962 64.12C739.738 63.7413 739.437 63.4427 739.058 63.224C738.679 63.0053 738.266 62.896 737.818 62.896C737.311 62.896 736.877 63.0027 736.514 63.216C736.157 63.424 735.874 63.68 735.666 63.984L734.402 63.504L734.754 57.48H740.938V58.832H735.442L736.074 58.24L735.778 63.064L735.466 62.656C735.786 62.3147 736.167 62.0507 736.61 61.864C737.058 61.6773 737.514 61.584 737.978 61.584C738.693 61.584 739.333 61.752 739.898 62.088C740.463 62.4187 740.911 62.872 741.242 63.448C741.573 64.0187 741.738 64.6613 741.738 65.376C741.738 66.0853 741.557 66.7333 741.194 67.32C740.831 67.9013 740.349 68.368 739.746 68.72C739.149 69.0667 738.493 69.24 737.778 69.24ZM746.854 69V57.48H751.342C752.03 57.48 752.617 57.6213 753.102 57.904C753.593 58.1867 753.966 58.56 754.222 59.024C754.484 59.4827 754.614 59.9787 754.614 60.512C754.614 61.136 754.454 61.6827 754.134 62.152C753.814 62.6213 753.382 62.944 752.838 63.12L752.822 62.728C753.564 62.9253 754.14 63.288 754.55 63.816C754.961 64.344 755.166 64.9733 755.166 65.704C755.166 66.376 755.028 66.9573 754.75 67.448C754.478 67.9387 754.084 68.32 753.566 68.592C753.054 68.864 752.446 69 751.742 69H746.854ZM748.294 67.64H751.47C751.897 67.64 752.278 67.5627 752.614 67.408C752.95 67.248 753.214 67.024 753.406 66.736C753.604 66.448 753.702 66.1013 753.702 65.696C753.702 65.3067 753.614 64.9573 753.438 64.648C753.268 64.3387 753.025 64.0933 752.71 63.912C752.401 63.7253 752.041 63.632 751.63 63.632H748.294V67.64ZM748.294 62.288H751.326C751.668 62.288 751.974 62.216 752.246 62.072C752.524 61.9227 752.742 61.7147 752.902 61.448C753.068 61.1813 753.15 60.8693 753.15 60.512C753.15 60.016 752.982 59.6107 752.646 59.296C752.31 58.9813 751.87 58.824 751.326 58.824H748.294V62.288ZM759.217 69.24C758.571 69.24 758.03 69.1227 757.593 68.888C757.161 68.648 756.833 68.3333 756.609 67.944C756.39 67.5547 756.281 67.128 756.281 66.664C756.281 66.2107 756.366 65.8187 756.537 65.488C756.713 65.152 756.958 64.8747 757.273 64.656C757.587 64.432 757.963 64.256 758.401 64.128C758.811 64.016 759.27 63.92 759.777 63.84C760.289 63.7547 760.806 63.6773 761.329 63.608C761.851 63.5387 762.339 63.472 762.793 63.408L762.281 63.704C762.297 62.936 762.142 62.368 761.817 62C761.497 61.632 760.942 61.448 760.153 61.448C759.63 61.448 759.171 61.568 758.777 61.808C758.387 62.0427 758.113 62.4267 757.953 62.96L756.601 62.552C756.809 61.7947 757.211 61.2 757.809 60.768C758.406 60.336 759.193 60.12 760.169 60.12C760.953 60.12 761.625 60.2613 762.185 60.544C762.75 60.8213 763.155 61.2427 763.401 61.808C763.523 62.0747 763.601 62.3653 763.633 62.68C763.665 62.9893 763.681 63.3147 763.681 63.656V69H762.417V66.928L762.713 67.12C762.387 67.8187 761.931 68.3467 761.345 68.704C760.763 69.0613 760.054 69.24 759.217 69.24ZM759.433 68.048C759.945 68.048 760.387 67.9573 760.761 67.776C761.139 67.5893 761.443 67.3467 761.673 67.048C761.902 66.744 762.051 66.4133 762.121 66.056C762.201 65.7893 762.243 65.4933 762.249 65.168C762.259 64.8373 762.265 64.584 762.265 64.408L762.761 64.624C762.297 64.688 761.841 64.7493 761.393 64.808C760.945 64.8667 760.521 64.9307 760.121 65C759.721 65.064 759.361 65.1413 759.041 65.232C758.806 65.3067 758.585 65.4027 758.377 65.52C758.174 65.6373 758.009 65.7893 757.881 65.976C757.758 66.1573 757.697 66.384 757.697 66.656C757.697 66.8907 757.755 67.1147 757.873 67.328C757.995 67.5413 758.182 67.7147 758.433 67.848C758.689 67.9813 759.022 68.048 759.433 68.048ZM765.921 69V57.24H767.345V69H765.921Z" fill="white"/>
<path d="M873.128 68V58.056L870.96 59.368V57.776L873.128 56.48H874.576V68H873.128ZM881.508 68.24C880.761 68.24 880.095 68.072 879.508 67.736C878.927 67.3947 878.465 66.9333 878.124 66.352C877.788 65.7653 877.62 65.0987 877.62 64.352V60.128C877.62 59.3813 877.788 58.7147 878.124 58.128C878.465 57.5413 878.927 57.08 879.508 56.744C880.095 56.408 880.761 56.24 881.508 56.24C882.255 56.24 882.921 56.408 883.508 56.744C884.095 57.08 884.556 57.5413 884.892 58.128C885.228 58.7147 885.396 59.3813 885.396 60.128V64.352C885.396 65.0987 885.228 65.7653 884.892 66.352C884.556 66.9333 884.095 67.3947 883.508 67.736C882.921 68.072 882.255 68.24 881.508 68.24ZM881.508 66.872C881.961 66.872 882.372 66.7627 882.74 66.544C883.108 66.3253 883.401 66.032 883.62 65.664C883.839 65.2907 883.948 64.88 883.948 64.432V60.04C883.948 59.5867 883.839 59.176 883.62 58.808C883.401 58.44 883.108 58.1467 882.74 57.928C882.372 57.7093 881.961 57.6 881.508 57.6C881.06 57.6 880.649 57.7093 880.276 57.928C879.908 58.1467 879.615 58.44 879.396 58.808C879.177 59.176 879.068 59.5867 879.068 60.04V64.432C879.068 64.88 879.177 65.2907 879.396 65.664C879.615 66.032 879.908 66.3253 880.276 66.544C880.649 66.7627 881.06 66.872 881.508 66.872ZM890.548 56.48H891.996L888.924 68H887.476L890.548 56.48ZM897.961 68.24C897.214 68.24 896.548 68.072 895.961 67.736C895.38 67.3947 894.918 66.9333 894.577 66.352C894.241 65.7653 894.073 65.0987 894.073 64.352V60.128C894.073 59.3813 894.241 58.7147 894.577 58.128C894.918 57.5413 895.38 57.08 895.961 56.744C896.548 56.408 897.214 56.24 897.961 56.24C898.708 56.24 899.374 56.408 899.961 56.744C900.548 57.08 901.009 57.5413 901.345 58.128C901.681 58.7147 901.849 59.3813 901.849 60.128V64.352C901.849 65.0987 901.681 65.7653 901.345 66.352C901.009 66.9333 900.548 67.3947 899.961 67.736C899.374 68.072 898.708 68.24 897.961 68.24ZM897.961 66.872C898.414 66.872 898.825 66.7627 899.193 66.544C899.561 66.3253 899.854 66.032 900.073 65.664C900.292 65.2907 900.401 64.88 900.401 64.432V60.04C900.401 59.5867 900.292 59.176 900.073 58.808C899.854 58.44 899.561 58.1467 899.193 57.928C898.825 57.7093 898.414 57.6 897.961 57.6C897.513 57.6 897.102 57.7093 896.729 57.928C896.361 58.1467 896.068 58.44 895.849 58.808C895.63 59.176 895.521 59.5867 895.521 60.04V64.432C895.521 64.88 895.63 65.2907 895.849 65.664C896.068 66.032 896.361 66.3253 896.729 66.544C897.102 66.7627 897.513 66.872 897.961 66.872ZM903.769 67.992L903.777 66.712L908.889 62.112C909.315 61.728 909.601 61.3653 909.745 61.024C909.894 60.6773 909.969 60.3227 909.969 59.96C909.969 59.5173 909.867 59.1173 909.665 58.76C909.462 58.4027 909.185 58.12 908.833 57.912C908.486 57.704 908.091 57.6 907.649 57.6C907.19 57.6 906.782 57.7093 906.425 57.928C906.067 58.1413 905.785 58.4267 905.577 58.784C905.374 59.1413 905.275 59.5307 905.281 59.952H903.825C903.825 59.2267 903.993 58.5867 904.329 58.032C904.665 57.472 905.121 57.0347 905.697 56.72C906.278 56.4 906.937 56.24 907.673 56.24C908.387 56.24 909.027 56.4053 909.593 56.736C910.158 57.0613 910.603 57.5067 910.929 58.072C911.259 58.632 911.425 59.2667 911.425 59.976C911.425 60.4773 911.361 60.912 911.233 61.28C911.11 61.648 910.918 61.9893 910.657 62.304C910.395 62.6133 910.067 62.944 909.673 63.296L905.425 67.112L905.241 66.632H911.425V67.992H903.769ZM916.251 56.48H917.699L914.627 68H913.179L916.251 56.48ZM919.456 67.992L919.464 66.712L924.576 62.112C925.003 61.728 925.288 61.3653 925.432 61.024C925.582 60.6773 925.656 60.3227 925.656 59.96C925.656 59.5173 925.555 59.1173 925.352 58.76C925.15 58.4027 924.872 58.12 924.52 57.912C924.174 57.704 923.779 57.6 923.336 57.6C922.878 57.6 922.47 57.7093 922.112 57.928C921.755 58.1413 921.472 58.4267 921.264 58.784C921.062 59.1413 920.963 59.5307 920.968 59.952H919.512C919.512 59.2267 919.68 58.5867 920.016 58.032C920.352 57.472 920.808 57.0347 921.384 56.72C921.966 56.4 922.624 56.24 923.36 56.24C924.075 56.24 924.715 56.4053 925.28 56.736C925.846 57.0613 926.291 57.5067 926.616 58.072C926.947 58.632 927.112 59.2667 927.112 59.976C927.112 60.4773 927.048 60.912 926.92 61.28C926.798 61.648 926.606 61.9893 926.344 62.304C926.083 62.6133 925.755 62.944 925.36 63.296L921.112 67.112L920.928 66.632H927.112V67.992H919.456ZM932.914 68.24C932.168 68.24 931.501 68.072 930.914 67.736C930.333 67.3947 929.872 66.9333 929.53 66.352C929.194 65.7653 929.026 65.0987 929.026 64.352V60.128C929.026 59.3813 929.194 58.7147 929.53 58.128C929.872 57.5413 930.333 57.08 930.914 56.744C931.501 56.408 932.168 56.24 932.914 56.24C933.661 56.24 934.328 56.408 934.914 56.744C935.501 57.08 935.962 57.5413 936.298 58.128C936.634 58.7147 936.802 59.3813 936.802 60.128V64.352C936.802 65.0987 936.634 65.7653 936.298 66.352C935.962 66.9333 935.501 67.3947 934.914 67.736C934.328 68.072 933.661 68.24 932.914 68.24ZM932.914 66.872C933.368 66.872 933.778 66.7627 934.146 66.544C934.514 66.3253 934.808 66.032 935.026 65.664C935.245 65.2907 935.354 64.88 935.354 64.432V60.04C935.354 59.5867 935.245 59.176 935.026 58.808C934.808 58.44 934.514 58.1467 934.146 57.928C933.778 57.7093 933.368 57.6 932.914 57.6C932.466 57.6 932.056 57.7093 931.682 57.928C931.314 58.1467 931.021 58.44 930.802 58.808C930.584 59.176 930.474 59.5867 930.474 60.04V64.432C930.474 64.88 930.584 65.2907 930.802 65.664C931.021 66.032 931.314 66.3253 931.682 66.544C932.056 66.7627 932.466 66.872 932.914 66.872ZM938.722 67.992L938.73 66.712L943.842 62.112C944.269 61.728 944.554 61.3653 944.698 61.024C944.847 60.6773 944.922 60.3227 944.922 59.96C944.922 59.5173 944.821 59.1173 944.618 58.76C944.415 58.4027 944.138 58.12 943.786 57.912C943.439 57.704 943.045 57.6 942.602 57.6C942.143 57.6 941.735 57.7093 941.378 57.928C941.021 58.1413 940.738 58.4267 940.53 58.784C940.327 59.1413 940.229 59.5307 940.234 59.952H938.778C938.778 59.2267 938.946 58.5867 939.282 58.032C939.618 57.472 940.074 57.0347 940.65 56.72C941.231 56.4 941.89 56.24 942.626 56.24C943.341 56.24 943.981 56.4053 944.546 56.736C945.111 57.0613 945.557 57.5067 945.882 58.072C946.213 58.632 946.378 59.2667 946.378 59.976C946.378 60.4773 946.314 60.912 946.186 61.28C946.063 61.648 945.871 61.9893 945.61 62.304C945.349 62.6133 945.021 62.944 944.626 63.296L940.378 67.112L940.194 66.632H946.378V67.992H938.722ZM951.452 68.224C950.881 68.224 950.351 68.12 949.86 67.912C949.369 67.6987 948.945 67.4 948.588 67.016C948.236 66.6267 947.977 66.1653 947.812 65.632L949.18 65.24C949.356 65.7733 949.649 66.1787 950.06 66.456C950.471 66.7333 950.932 66.8693 951.444 66.864C951.913 66.8533 952.319 66.7467 952.66 66.544C953.007 66.336 953.273 66.0533 953.46 65.696C953.652 65.3387 953.748 64.9253 953.748 64.456C953.748 63.7413 953.535 63.1627 953.108 62.72C952.681 62.272 952.121 62.048 951.428 62.048C951.236 62.048 951.033 62.0747 950.82 62.128C950.612 62.1813 950.417 62.256 950.236 62.352L949.548 61.224L953.82 57.36L954.004 57.84H948.268V56.48H955.06V57.848L951.42 61.336L951.404 60.832C952.167 60.7787 952.833 60.904 953.404 61.208C953.975 61.512 954.417 61.9467 954.732 62.512C955.052 63.0773 955.212 63.7253 955.212 64.456C955.212 65.192 955.047 65.8427 954.716 66.408C954.385 66.9733 953.937 67.4187 953.372 67.744C952.807 68.064 952.167 68.224 951.452 68.224Z" fill="white"/>
</g>
<defs>
<filter id="filter0_d_55_2906" x="0" y="0" width="1048" height="120" filterUnits="userSpaceOnUse" color-interpolation-filters="sRGB">
<feFlood flood-opacity="0" result="BackgroundImageFix"/>
<feColorMatrix in="SourceAlpha" type="matrix" values="0 0 0 0 0 0 0 0 0 0 0 0 0 0 0 0 0 0 127 0" result="hardAlpha"/>
<feMorphology radius="3" operator="erode" in="SourceAlpha" result="effect1_dropShadow_55_2906"/>
<feOffset/>
<feGaussianBlur stdDeviation="16"/>
<feComposite in2="hardAlpha" operator="out"/>
<feColorMatrix type="matrix" values="0 0 0 0 0 0 0 0 0 0 0 0 0 0 0 0 0 0 0.15 0"/>
<feBlend mode="normal" in2="BackgroundImageFix" result="effect1_dropShadow_55_2906"/>
<feBlend mode="normal" in="SourceGraphic" in2="effect1_dropShadow_55_2906" result="shape"/>
</filter>
</defs>
</svg>
